  0
SECTION
  2
HEADER
  9
$ACADVER
  1
AC1024
  9
$ACADMAINTVER
 70
     6
  9
$DWGCODEPAGE
  3
ANSI_1252
  9
$INSBASE
 10
0.0
 20
0.0
 30
0.0
  9
$EXTMIN
 10
1.000000000000000E+20
 20
1.000000000000000E+20
 30
1.000000000000000E+20
  9
$EXTMAX
 10
-1.000000000000000E+20
 20
-1.000000000000000E+20
 30
-1.000000000000000E+20
  9
$LIMMIN
 10
0.0
 20
0.0
  9
$LIMMAX
 10
12.0
 20
9.0
  9
$ORTHOMODE
 70
     0
  9
$REGENMODE
 70
     1
  9
$FILLMODE
 70
     1
  9
$QTEXTMODE
 70
     0
  9
$MIRRTEXT
 70
     1
  9
$LTSCALE
 40
1.0
  9
$ATTMODE
 70
     1
  9
$TEXTSIZE
 40
0.2
  9
$TRACEWID
 40
0.05
  9
$TEXTSTYLE
  7
Standard
  9
$CLAYER
  8
0
  9
$CELTYPE
  6
ByLayer
  9
$CECOLOR
 62
   256
  9
$CELTSCALE
 40
1.0
  9
$DISPSILH
 70
     0
  9
$DIMSCALE
 40
1.0
  9
$DIMASZ
 40
0.18
  9
$DIMEXO
 40
0.0625
  9
$DIMDLI
 40
0.38
  9
$DIMRND
 40
0.0
  9
$DIMDLE
 40
0.0
  9
$DIMEXE
 40
0.18
  9
$DIMTP
 40
0.0
  9
$DIMTM
 40
0.0
  9
$DIMTXT
 40
0.18
  9
$DIMCEN
 40
0.09
  9
$DIMTSZ
 40
0.0
  9
$DIMTOL
 70
     0
  9
$DIMLIM
 70
     0
  9
$DIMTIH
 70
     1
  9
$DIMTOH
 70
     1
  9
$DIMSE1
 70
     0
  9
$DIMSE2
 70
     0
  9
$DIMTAD
 70
     0
  9
$DIMZIN
 70
     0
  9
$DIMBLK
  1

  9
$DIMASO
 70
     1
  9
$DIMSHO
 70
     1
  9
$DIMPOST
  1

  9
$DIMAPOST
  1

  9
$DIMALT
 70
     0
  9
$DIMALTD
 70
     2
  9
$DIMALTF
 40
25.4
  9
$DIMLFAC
 40
1.0
  9
$DIMTOFL
 70
     0
  9
$DIMTVP
 40
0.0
  9
$DIMTIX
 70
     0
  9
$DIMSOXD
 70
     0
  9
$DIMSAH
 70
     0
  9
$DIMBLK1
  1

  9
$DIMBLK2
  1

  9
$DIMSTYLE
  2
Standard
  9
$DIMCLRD
 70
     0
  9
$DIMCLRE
 70
     0
  9
$DIMCLRT
 70
     0
  9
$DIMTFAC
 40
1.0
  9
$DIMGAP
 40
0.09
  9
$DIMJUST
 70
     0
  9
$DIMSD1
 70
     0
  9
$DIMSD2
 70
     0
  9
$DIMTOLJ
 70
     1
  9
$DIMTZIN
 70
     0
  9
$DIMALTZ
 70
     0
  9
$DIMALTTZ
 70
     0
  9
$DIMUPT
 70
     0
  9
$DIMDEC
 70
     4
  9
$DIMTDEC
 70
     4
  9
$DIMALTU
 70
     2
  9
$DIMALTTD
 70
     2
  9
$DIMTXSTY
  7
Standard
  9
$DIMAUNIT
 70
     0
  9
$DIMADEC
 70
     0
  9
$DIMALTRND
 40
0.0
  9
$DIMAZIN
 70
     0
  9
$DIMDSEP
 70
    46
  9
$DIMATFIT
 70
     3
  9
$DIMFRAC
 70
     0
  9
$DIMLDRBLK
  1

  9
$DIMLUNIT
 70
     2
  9
$DIMLWD
 70
    -2
  9
$DIMLWE
 70
    -2
  9
$DIMTMOVE
 70
     0
  9
$DIMFXL
 40
1.0
  9
$DIMFXLON
 70
     0
  9
$DIMJOGANG
 40
0.7853981633974483
  9
$DIMTFILL
 70
     0
  9
$DIMTFILLCLR
 70
     0
  9
$DIMARCSYM
 70
     0
  9
$DIMLTYPE
  6

  9
$DIMLTEX1
  6

  9
$DIMLTEX2
  6

  9
$DIMTXTDIRECTION
 70
     0
  9
$LUNITS
 70
     2
  9
$LUPREC
 70
     4
  9
$SKETCHINC
 40
0.1
  9
$FILLETRAD
 40
0.5
  9
$AUNITS
 70
     0
  9
$AUPREC
 70
     0
  9
$MENU
  1
.
  9
$ELEVATION
 40
0.0
  9
$PELEVATION
 40
0.0
  9
$THICKNESS
 40
0.0
  9
$LIMCHECK
 70
     0
  9
$CHAMFERA
 40
0.5
  9
$CHAMFERB
 40
0.5
  9
$CHAMFERC
 40
1.0
  9
$CHAMFERD
 40
0.0
  9
$SKPOLY
 70
     0
  9
$TDCREATE
 40
2458982.829
  9
$TDUCREATE
 40
2458983.037333333
  9
$TDUPDATE
 40
2458982.829005521
  9
$TDUUPDATE
 40
2458983.037338854
  9
$TDINDWG
 40
0.0000000116
  9
$TDUSRTIMER
 40
0.0000000116
  9
$USRTIMER
 70
     1
  9
$ANGBASE
 50
0.0
  9
$ANGDIR
 70
     0
  9
$PDMODE
 70
     0
  9
$PDSIZE
 40
0.0
  9
$PLINEWID
 40
0.0
  9
$SPLFRAME
 70
     0
  9
$SPLINETYPE
 70
     6
  9
$SPLINESEGS
 70
     8
  9
$HANDSEED
  5
59
  9
$SURFTAB1
 70
     6
  9
$SURFTAB2
 70
     6
  9
$SURFTYPE
 70
     6
  9
$SURFU
 70
     6
  9
$SURFV
 70
     6
  9
$UCSBASE
  2

  9
$UCSNAME
  2

  9
$UCSORG
 10
0.0
 20
0.0
 30
0.0
  9
$UCSXDIR
 10
1.0
 20
0.0
 30
0.0
  9
$UCSYDIR
 10
0.0
 20
1.0
 30
0.0
  9
$UCSORTHOREF
  2

  9
$UCSORTHOVIEW
 70
     0
  9
$UCSORGTOP
 10
0.0
 20
0.0
 30
0.0
  9
$UCSORGBOTTOM
 10
0.0
 20
0.0
 30
0.0
  9
$UCSORGLEFT
 10
0.0
 20
0.0
 30
0.0
  9
$UCSORGRIGHT
 10
0.0
 20
0.0
 30
0.0
  9
$UCSORGFRONT
 10
0.0
 20
0.0
 30
0.0
  9
$UCSORGBACK
 10
0.0
 20
0.0
 30
0.0
  9
$PUCSBASE
  2

  9
$PUCSNAME
  2

  9
$PUCSORG
 10
0.0
 20
0.0
 30
0.0
  9
$PUCSXDIR
 10
1.0
 20
0.0
 30
0.0
  9
$PUCSYDIR
 10
0.0
 20
1.0
 30
0.0
  9
$PUCSORTHOREF
  2

  9
$PUCSORTHOVIEW
 70
     0
  9
$PUCSORGTOP
 10
0.0
 20
0.0
 30
0.0
  9
$PUCSORGBOTTOM
 10
0.0
 20
0.0
 30
0.0
  9
$PUCSORGLEFT
 10
0.0
 20
0.0
 30
0.0
  9
$PUCSORGRIGHT
 10
0.0
 20
0.0
 30
0.0
  9
$PUCSORGFRONT
 10
0.0
 20
0.0
 30
0.0
  9
$PUCSORGBACK
 10
0.0
 20
0.0
 30
0.0
  9
$USERI1
 70
     0
  9
$USERI2
 70
     0
  9
$USERI3
 70
     0
  9
$USERI4
 70
     0
  9
$USERI5
 70
     0
  9
$USERR1
 40
0.0
  9
$USERR2
 40
0.0
  9
$USERR3
 40
0.0
  9
$USERR4
 40
0.0
  9
$USERR5
 40
0.0
  9
$WORLDVIEW
 70
     1
  9
$SHADEDGE
 70
     3
  9
$SHADEDIF
 70
    70
  9
$TILEMODE
 70
     1
  9
$MAXACTVP
 70
    64
  9
$PINSBASE
 10
0.0
 20
0.0
 30
0.0
  9
$PLIMCHECK
 70
     0
  9
$PEXTMIN
 10
1.000000000000000E+20
 20
1.000000000000000E+20
 30
1.000000000000000E+20
  9
$PEXTMAX
 10
-1.000000000000000E+20
 20
-1.000000000000000E+20
 30
-1.000000000000000E+20
  9
$PLIMMIN
 10
0.0
 20
0.0
  9
$PLIMMAX
 10
12.0
 20
9.0
  9
$UNITMODE
 70
     0
  9
$VISRETAIN
 70
     1
  9
$PLINEGEN
 70
     0
  9
$PSLTSCALE
 70
     1
  9
$TREEDEPTH
 70
  3020
  9
$CMLSTYLE
  2
Standard
  9
$CMLJUST
 70
     0
  9
$CMLSCALE
 40
1.0
  9
$PROXYGRAPHICS
 70
     1
  9
$MEASUREMENT
 70
     0
  9
$CELWEIGHT
370
    -1
  9
$ENDCAPS
280
     0
  9
$JOINSTYLE
280
     0
  9
$LWDISPLAY
290
     1
  9
$INSUNITS
 70
     1
  9
$HYPERLINKBASE
  1

  9
$STYLESHEET
  1

  9
$XEDIT
290
     1
  9
$CEPSNTYPE
380
     0
  9
$PSTYLEMODE
290
     1
  9
$FINGERPRINTGUID
  2
{CFF9C236-C62F-45D5-AD5C-FF1F6F6DE72D}
  9
$VERSIONGUID
  2
{FAEB1C32-E019-11D5-929B-00C0DF256EC4}
  9
$EXTNAMES
290
     1
  9
$PSVPSCALE
 40
0.0
  9
$OLESTARTUP
290
     0
  9
$SORTENTS
280
   127
  9
$INDEXCTL
280
     0
  9
$HIDETEXT
280
     1
  9
$XCLIPFRAME
280
     2
  9
$HALOGAP
280
     0
  9
$OBSCOLOR
 70
   257
  9
$OBSLTYPE
280
     0
  9
$INTERSECTIONDISPLAY
280
     0
  9
$INTERSECTIONCOLOR
 70
   257
  9
$DIMASSOC
280
     2
  9
$PROJECTNAME
  1

  9
$CAMERADISPLAY
290
     0
  9
$LENSLENGTH
 40
50.0
  9
$CAMERAHEIGHT
 40
0.0
  9
$STEPSPERSEC
 40
2.0
  9
$STEPSIZE
 40
6.0
  9
$3DDWFPREC
 40
2.0
  9
$PSOLWIDTH
 40
0.25
  9
$PSOLHEIGHT
 40
4.0
  9
$LOFTANG1
 40
1.570796326794897
  9
$LOFTANG2
 40
1.570796326794897
  9
$LOFTMAG1
 40
0.0
  9
$LOFTMAG2
 40
0.0
  9
$LOFTPARAM
 70
     7
  9
$LOFTNORMALS
280
     1
  9
$LATITUDE
 40
37.795
  9
$LONGITUDE
 40
-122.394
  9
$NORTHDIRECTION
 40
0.0
  9
$TIMEZONE
 70
 -8000
  9
$LIGHTGLYPHDISPLAY
280
     1
  9
$TILEMODELIGHTSYNCH
280
     1
  9
$CMATERIAL
347
3C
  9
$SOLIDHIST
280
     1
  9
$SHOWHIST
280
     1
  9
$DWFFRAME
280
     2
  9
$DGNFRAME
280
     2
  9
$REALWORLDSCALE
290
     1
  9
$INTERFERECOLOR
 62
   256
  9
$CSHADOW
280
     0
  9
$SHADOWPLANELOCATION
 40
0.0
  0
ENDSEC
  0
SECTION
  2
CLASSES
  0
CLASS
  1
ACDBDICTIONARYWDFLT
  2
AcDbDictionaryWithDefault
  3
ObjectDBX Classes
 90
        0
 91
        4
280
     0
281
     0
  0
CLASS
  1
VISUALSTYLE
  2
AcDbVisualStyle
  3
ObjectDBX Classes
 90
     4095
 91
        4
280
     0
281
     0
  0
CLASS
  1
MATERIAL
  2
AcDbMaterial
  3
ObjectDBX Classes
 90
     1153
 91
        4
280
     0
281
     0
  0
CLASS
  1
SUN
  2
AcDbSun
  3
SCENEOE
 90
     1024
 91
        4
280
     0
281
     0
  0
CLASS
  1
IMAGEDEF
  2
AcDbRasterImageDef
  3
ISM
 90
        0
 91
        4
280
     0
281
     0
  0
CLASS
  1
RASTERVARIABLES
  2
AcDbRasterVariables
  3
ISM
 90
        0
 91
        4
280
     0
281
     0
  0
CLASS
  1
IMAGE
  2
AcDbRasterImage
  3
ISM
 90
      127
 91
        5
280
     0
281
     1
  0
CLASS
  1
IMAGEDEF_REACTOR
  2
AcDbRasterImageDefReactor
  3
ISM
 90
        1
 91
        4
280
     0
281
     0
  0
ENDSEC
  0
SECTION
  2
TABLES
  0
TABLE
  2
VPORT
  5
8
330
0
100
AcDbSymbolTable
 70
     1
  0
VPORT
  5
29
330
8
100
AcDbSymbolTableRecord
100
AcDbViewportTableRecord
  2
*Active
 70
     0
 10
0.0
 20
0.0
 11
1.0
 21
1.0
 12
0.0
 22
0.0
 13
0.0
 23
0.0
 14
0.5
 24
0.5
 15
0.5
 25
0.5
 16
0.0
 26
0.0
 36
1.0
 17
10.50000721959722
 27
-14.85000416295416
 37
0.0
 40
29.70000832590831
 41
0.7070709950231031
 42
50.0
 43
0.0
 44
0.0
 50
0.0
 51
0.0
 71
     0
 72
   100
 73
     1
 74
     3
 75
     0
 76
     0
 77
     0
 78
     0
281
     0
 65
     1
110
0.0
120
0.0
130
0.0
111
1.0
121
0.0
131
0.0
112
0.0
122
1.0
132
0.0
 79
     0
146
0.0
 60
     3
 61
     5
292
     1
282
     1
141
0.0
142
0.0
 63
   250
361
3F
  0
ENDTAB
  0
TABLE
  2
LTYPE
  5
5
330
0
100
AcDbSymbolTable
 70
     1
  0
LTYPE
  5
14
330
5
100
AcDbSymbolTableRecord
100
AcDbLinetypeTableRecord
  2
ByBlock
 70
     0
  3

 72
    65
 73
     0
 40
0.0
  0
LTYPE
  5
15
330
5
100
AcDbSymbolTableRecord
100
AcDbLinetypeTableRecord
  2
ByLayer
 70
     0
  3

 72
    65
 73
     0
 40
0.0
  0
LTYPE
  5
16
330
5
100
AcDbSymbolTableRecord
100
AcDbLinetypeTableRecord
  2
Continuous
 70
     0
  3
Solid line
 72
    65
 73
     0
 40
0.0
  0
ENDTAB
  0
TABLE
  2
LAYER
  5
2
330
0
100
AcDbSymbolTable
 70
     3
  0
LAYER
  5
10
330
2
100
AcDbSymbolTableRecord
100
AcDbLayerTableRecord
  2
0
 70
     0
 62
     7
  6
Continuous
370
    -3
390
F
347
3E
  0
LAYER
  5
40
330
2
100
AcDbSymbolTableRecord
100
AcDbLayerTableRecord
  2
Image
 70
     1
 62
     7
  6
Continuous
370
    -3
390
F
347
3E
  0
LAYER
  5
46
330
2
100
AcDbSymbolTableRecord
100
AcDbLayerTableRecord
  2
Path
 70
     0
 62
     7
  6
Continuous
370
    -3
390
F
347
3E
  0
ENDTAB
  0
TABLE
  2
STYLE
  5
3
330
0
100
AcDbSymbolTable
 70
     1
  0
STYLE
  5
11
330
3
100
AcDbSymbolTableRecord
100
AcDbTextStyleTableRecord
  2
Standard
 70
     0
 40
0.0
 41
1.0
 50
0.0
 71
     0
 42
0.2
  3
txt
  4

  0
ENDTAB
  0
TABLE
  2
VIEW
  5
6
330
0
100
AcDbSymbolTable
 70
     0
  0
ENDTAB
  0
TABLE
  2
UCS
  5
7
330
0
100
AcDbSymbolTable
 70
     0
  0
ENDTAB
  0
TABLE
  2
APPID
  5
9
330
0
100
AcDbSymbolTable
 70
     1
  0
APPID
  5
12
330
9
100
AcDbSymbolTableRecord
100
AcDbRegAppTableRecord
  2
ACAD
 70
     0
  0
ENDTAB
  0
TABLE
  2
DIMSTYLE
  5
A
330
0
100
AcDbSymbolTable
 70
     1
100
AcDbDimStyleTable
  0
DIMSTYLE
105
27
330
A
100
AcDbSymbolTableRecord
100
AcDbDimStyleTableRecord
  2
Standard
 70
     0
178
     0
340
11
  0
ENDTAB
  0
TABLE
  2
BLOCK_RECORD
  5
1
330
0
100
AcDbSymbolTable
 70
     1
  0
BLOCK_RECORD
  5
1F
330
1
100
AcDbSymbolTableRecord
100
AcDbBlockTableRecord
  2
*Model_Space
340
22
 70
     0
280
     1
281
     0
  0
BLOCK_RECORD
  5
1B
330
1
100
AcDbSymbolTableRecord
100
AcDbBlockTableRecord
  2
*Paper_Space
340
1E
 70
     0
280
     1
281
     0
  0
BLOCK_RECORD
  5
23
330
1
100
AcDbSymbolTableRecord
100
AcDbBlockTableRecord
  2
*Paper_Space0
340
26
 70
     0
280
     1
281
     0
  0
ENDTAB
  0
ENDSEC
  0
SECTION
  2
BLOCKS
  0
BLOCK
  5
20
330
1F
100
AcDbEntity
  8
0
100
AcDbBlockBegin
  2
*Model_Space
 70
     0
 10
0.0
 20
0.0
 30
0.0
  3
*Model_Space
  1

  0
ENDBLK
  5
21
330
1F
100
AcDbEntity
  8
0
100
AcDbBlockEnd
  0
BLOCK
  5
1C
330
1B
100
AcDbEntity
 67
     1
  8
0
100
AcDbBlockBegin
  2
*Paper_Space
 70
     0
 10
0.0
 20
0.0
 30
0.0
  3
*Paper_Space
  1

  0
ENDBLK
  5
1D
330
1B
100
AcDbEntity
 67
     1
  8
0
100
AcDbBlockEnd
  0
BLOCK
  5
24
330
23
100
AcDbEntity
  8
0
100
AcDbBlockBegin
  2
*Paper_Space0
 70
     0
 10
0.0
 20
0.0
 30
0.0
  3
*Paper_Space0
  1

  0
ENDBLK
  5
25
330
23
100
AcDbEntity
  8
0
100
AcDbBlockEnd
  0
ENDSEC
  0
SECTION
  2
ENTITIES
  0
IMAGE
  5
44
330
1F
100
AcDbEntity
  8
Image
160
                 8
310
0800000000000000
100
AcDbRasterImage
 90
        0
 10
1.996614172877173
 20
-17.49935078735894
 30
0.0
 11
0.04338465840163313
 21
0.0
 31
0.0
 12
0.0
 22
0.04338465840163313
 32
0.0
 13
392.0
 23
272.0
340
42
 70
     3
280
     0
281
    50
282
    50
283
     0
360
45
 71
     1
 91
        2
 14
-0.5
 24
-0.5
 14
391.5
 24
271.5
290
     0
  0
SPLINE
  5
47
330
1F
100
AcDbEntity
  8
Path
 62
   250
420
  2301728
370
    35
100
AcDbSpline
210
0.0
220
0.0
230
1.0
 70
     8
 71
     3
 72
    35
 73
    31
 74
     0
 42
0.0000000001
 43
0.0000000001
 12
1.0
 22
0.0
 32
0.0
 13
1.0
 23
0.0
 33
0.0
 40
0.0
 40
0.0
 40
0.0
 40
0.0
 40
1.0
 40
1.0
 40
1.0
 40
2.0
 40
2.0
 40
2.0
 40
3.0
 40
3.0
 40
3.0
 40
4.0
 40
4.0
 40
4.0
 40
5.0
 40
5.0
 40
5.0
 40
6.0
 40
6.0
 40
6.0
 40
7.0
 40
7.0
 40
7.0
 40
8.0
 40
8.0
 40
8.0
 40
9.0
 40
9.0
 40
9.0
 40
10.0
 40
10.0
 40
10.0
 40
10.0
 10
10.02844437369073
 20
-15.24027977017778
 30
0.0
 10
10.51277777514959
 20
-15.27527777395896
 30
0.0
 10
10.97138888614604
 20
-14.99305555180729
 30
0.0
 10
11.35944444160458
 20
-14.67555555188667
 30
0.0
 10
11.92388888590792
 20
-14.18166666312125
 30
0.0
 10
12.45305555244229
 20
-13.68777777435584
 30
0.0
 10
12.80583333013188
 20
-13.01749999674563
 30
0.0
 10
12.94694444120771
 20
-12.73527777459396
 30
0.0
 10
13.08805555228354
 20
-12.41777777467333
 30
0.0
 10
13.1233333300525
 20
-12.10027777475271
 30
0.0
 10
13.15861110782146
 20
-11.67694444152521
 30
0.0
 10
13.08805555228354
 20
-11.28888888606667
 30
0.0
 10
13.1233333300525
 20
-10.86555555283917
 30
0.0
 10
13.19388888559042
 20
-10.47749999738063
 30
0.0
 10
13.47611110774208
 20
-10.12472221969104
 30
0.0
 10
13.89944444096959
 20
-10.12472221969104
 30
0.0
 10
14.25222221865917
 20
-10.12472221969104
 30
0.0
 10
14.49916666304188
 20
-10.40694444184271
 30
0.0
 10
14.64027777411771
 20
-10.72444444176334
 30
0.0
 10
14.85194444073146
 20
-11.25361110829771
 30
0.0
 10
14.88722221850042
 20
-11.78277777483208
 30
0.0
 10
14.8166666629625
 20
-12.34722221913542
 30
0.0
 10
14.78138888519354
 20
-12.62944444128708
 30
0.0
 10
14.60499999634875
 20
-12.80583333013188
 30
0.0
 10
14.393333329735
 20
-12.94694444120771
 30
0.0
 10
14.04055555204542
 20
-13.1233333300525
 30
0.0
 10
13.65249999658688
 20
-12.98222221897667
 30
0.0
 10
13.44083332997313
 20
-12.66472221905604
 30
0.0
 10
13.26444444112833
 20
-12.38249999690438
 30
0.0
 10
13.22916666335938
 20
-12.06499999698375
 30
0.0
 10
13.21970879966003
 20
-11.76199092994796
 30
0.0
  0
SPLINE
  5
48
330
1F
100
AcDbEntity
  8
Path
 62
   250
420
  2301728
370
    35
100
AcDbSpline
210
0.0
220
0.0
230
1.0
 70
     8
 71
     3
 72
   125
 73
   121
 74
     0
 42
0.0000000001
 43
0.0000000001
 12
1.0
 22
0.0
 32
0.0
 13
1.0
 23
0.0
 33
0.0
 40
0.0
 40
0.0
 40
0.0
 40
0.0
 40
1.0
 40
1.0
 40
1.0
 40
2.0
 40
2.0
 40
2.0
 40
3.0
 40
3.0
 40
3.0
 40
4.0
 40
4.0
 40
4.0
 40
5.0
 40
5.0
 40
5.0
 40
6.0
 40
6.0
 40
6.0
 40
7.0
 40
7.0
 40
7.0
 40
8.0
 40
8.0
 40
8.0
 40
9.0
 40
9.0
 40
9.0
 40
10.0
 40
10.0
 40
10.0
 40
11.0
 40
11.0
 40
11.0
 40
12.0
 40
12.0
 40
12.0
 40
13.0
 40
13.0
 40
13.0
 40
14.0
 40
14.0
 40
14.0
 40
15.0
 40
15.0
 40
15.0
 40
16.0
 40
16.0
 40
16.0
 40
17.0
 40
17.0
 40
17.0
 40
18.0
 40
18.0
 40
18.0
 40
19.0
 40
19.0
 40
19.0
 40
20.0
 40
20.0
 40
20.0
 40
21.0
 40
21.0
 40
21.0
 40
22.0
 40
22.0
 40
22.0
 40
23.0
 40
23.0
 40
23.0
 40
24.0
 40
24.0
 40
24.0
 40
25.0
 40
25.0
 40
25.0
 40
26.0
 40
26.0
 40
26.0
 40
27.0
 40
27.0
 40
27.0
 40
28.0
 40
28.0
 40
28.0
 40
29.0
 40
29.0
 40
29.0
 40
30.0
 40
30.0
 40
30.0
 40
31.0
 40
31.0
 40
31.0
 40
32.0
 40
32.0
 40
32.0
 40
33.0
 40
33.0
 40
33.0
 40
34.0
 40
34.0
 40
34.0
 40
35.0
 40
35.0
 40
35.0
 40
36.0
 40
36.0
 40
36.0
 40
37.0
 40
37.0
 40
37.0
 40
38.0
 40
38.0
 40
38.0
 40
39.0
 40
39.0
 40
39.0
 40
40.0
 40
40.0
 40
40.0
 40
40.0
 10
6.634245137569413
 20
-14.00181437672144
 30
0.0
 10
6.632222220564167
 20
-13.54666666328
 30
0.0
 10
6.632222220564167
 20
-12.98222221897667
 30
0.0
 10
6.244166665105626
 20
-12.62944444128708
 30
0.0
 10
6.138333331798751
 20
-12.699999996825
 30
0.0
 10
6.208888887336667
 20
-12.84111110790083
 30
0.0
 10
6.244166665105626
 20
-12.91166666343875
 30
0.0
 10
6.244166665105626
 20
-13.22916666335938
 30
0.0
 10
6.349999998412501
 20
-13.54666666328
 30
0.0
 10
6.208888887336667
 20
-13.86416666320063
 30
0.0
 10
6.173611109567709
 20
-13.89944444096959
 30
0.0
 10
6.103055554029792
 20
-13.89944444096959
 30
0.0
 10
6.103055554029792
 20
-13.89944444096959
 30
0.0
 10
6.103055554029792
 20
-13.72305555212479
 30
0.0
 10
6.103055554029792
 20
-13.54666666328
 30
0.0
 10
6.032499998491875
 20
-13.40555555220417
 30
0.0
 10
5.856111109647084
 20
-13.08805555228354
 30
0.0
 10
5.71499999857125
 20
-12.77055555236292
 30
0.0
 10
5.432777776419584
 20
-12.52361110798021
 30
0.0
 10
5.468055554188543
 20
-12.98222221897667
 30
0.0
 10
5.785555554109167
 20
-13.44083332997313
 30
0.0
 10
5.573888887495418
 20
-13.86416666320063
 30
0.0
 10
5.397499998650626
 20
-13.51138888551104
 30
0.0
 10
5.291666665343751
 20
-13.1233333300525
 30
0.0
 10
4.938888887654167
 20
-12.84111110790083
 30
0.0
 10
4.833055554347292
 20
-12.77055555236292
 30
0.0
 10
4.656666665502501
 20
-12.59416666351813
 30
0.0
 10
4.515555554426667
 20
-12.699999996825
 30
0.0
 10
4.656666665502501
 20
-13.08805555228354
 30
0.0
 10
4.938888887654167
 20
-13.40555555220417
 30
0.0
 10
5.115277776498959
 20
-13.75833332989375
 30
0.0
 10
5.150555554267918
 20
-13.82888888543167
 30
0.0
 10
5.150555554267918
 20
-13.93472221873854
 30
0.0
 10
5.115277776498959
 20
-14.00527777427646
 30
0.0
 10
4.938888887654167
 20
-14.18166666312125
 30
0.0
 10
4.762499998809376
 20
-14.42861110750396
 30
0.0
 10
4.938888887654167
 20
-14.64027777411771
 30
0.0
 10
5.044722220961043
 20
-14.71083332965563
 30
0.0
 10
5.185833332036876
 20
-14.74611110742459
 30
0.0
 10
5.221111109805834
 20
-14.8166666629625
 30
0.0
 10
5.397499998650626
 20
-15.06361110734521
 30
0.0
 10
5.150555554267918
 20
-15.38111110726584
 30
0.0
 10
4.974166665423126
 20
-15.59277777387959
 30
0.0
 10
4.903611109885209
 20
-15.6633333294175
 30
0.0
 10
4.797777776578334
 20
-15.59277777387959
 30
0.0
 10
4.727222221040417
 20
-15.62805555164854
 30
0.0
 10
4.621388887733542
 20
-15.73388888495542
 30
0.0
 10
4.515555554426667
 20
-15.91027777380021
 30
0.0
 10
4.550833332195626
 20
-16.086666662645
 30
0.0
 10
4.550833332195626
 20
-16.19249999595188
 30
0.0
 10
4.656666665502501
 20
-16.26305555148979
 30
0.0
 10
4.727222221040417
 20
-16.33361110702771
 30
0.0
 10
4.868333332116251
 20
-16.43944444033459
 30
0.0
 10
5.079999998730001
 20
-16.47472221810354
 30
0.0
 10
5.221111109805834
 20
-16.33361110702771
 30
0.0
 10
5.326944443112709
 20
-16.19249999595188
 30
0.0
 10
5.221111109805834
 20
-15.98083332933813
 30
0.0
 10
5.256388887574793
 20
-15.80444444049333
 30
0.0
 10
5.326944443112709
 20
-15.48694444057271
 30
0.0
 10
5.609166665264376
 20
-15.34583332949688
 30
0.0
 10
5.856111109647084
 20
-15.16944444065209
 30
0.0
 10
5.926666665185
 20
-15.09888888511417
 30
0.0
 10
5.961944442953959
 20
-14.99305555180729
 30
0.0
 10
5.961944442953959
 20
-14.85194444073146
 30
0.0
 10
5.961944442953959
 20
-14.71083332965563
 30
0.0
 10
6.067777776260834
 20
-14.56972221857979
 30
0.0
 10
6.208888887336667
 20
-14.64027777411771
 30
0.0
 10
6.314722220643542
 20
-14.71083332965563
 30
0.0
 10
6.385277776181459
 20
-14.8166666629625
 30
0.0
 10
6.455833331719376
 20
-14.92249999626938
 30
0.0
 10
6.632222220564167
 20
-15.16944444065209
 30
0.0
 10
6.596944442795209
 20
-15.45166666280375
 30
0.0
 10
6.491111109488334
 20
-15.69861110718646
 30
0.0
 10
6.385277776181459
 20
-15.94555555156917
 30
0.0
 10
6.138333331798751
 20
-16.086666662645
 30
0.0
 10
5.926666665185
 20
-16.26305555148979
 30
0.0
 10
5.785555554109167
 20
-16.36888888479667
 30
0.0
 10
5.785555554109167
 20
-16.58055555141042
 30
0.0
 10
5.856111109647084
 20
-16.75694444025521
 30
0.0
 10
5.926666665185
 20
-16.86277777356209
 30
0.0
 10
6.103055554029792
 20
-16.96861110686896
 30
0.0
 10
6.244166665105626
 20
-16.79222221802417
 30
0.0
 10
6.314722220643542
 20
-16.65111110694833
 30
0.0
 10
6.349999998412501
 20
-16.5099999958725
 30
0.0
 10
6.349999998412501
 20
-16.33361110702771
 30
0.0
 10
6.455833331719376
 20
-15.94555555156917
 30
0.0
 10
6.808611109408959
 20
-15.73388888495542
 30
0.0
 10
7.090833331560626
 20
-15.48694444057271
 30
0.0
 10
7.373055553712293
 20
-15.16944444065209
 30
0.0
 10
7.337777775943334
 20
-14.67555555188667
 30
0.0
 10
7.055555553791668
 20
-14.393333329735
 30
0.0
 10
6.949722220484793
 20
-14.28749999642813
 30
0.0
 10
6.738055553871042
 20
-14.28749999642813
 30
0.0
 10
6.632222220564167
 20
-14.18166666312125
 30
0.0
 10
6.596944442795209
 20
-14.14638888535229
 30
0.0
 10
6.667499998333126
 20
-14.07583332981438
 30
0.0
 10
6.702777776102084
 20
-14.04055555204542
 30
0.0
 10
7.055555553791668
 20
-13.82888888543167
 30
0.0
 10
7.267222220405418
 20
-13.51138888551104
 30
0.0
 10
7.408333331481251
 20
-13.15861110782146
 30
0.0
 10
7.725833331401876
 20
-12.31194444136646
 30
0.0
 10
7.478888887019168
 20
-11.4299999971425
 30
0.0
 10
7.373055553712293
 20
-10.54805555291854
 30
0.0
 10
7.337777775943334
 20
-10.15999999746
 30
0.0
 10
7.337777775943334
 20
-9.736666664232501
 30
0.0
 10
7.514166664788126
 20
-9.383888886542918
 30
0.0
 10
7.65527777586396
 20
-9.136944442160209
 30
0.0
 10
7.796388886939793
 20
-8.889999997777501
 30
0.0
 10
8.07861110909146
 20
-8.784166664470627
 30
0.0
 10
8.396111109012084
 20
-8.678333331163751
 30
0.0
 10
8.71361110893271
 20
-8.678333331163751
 30
0.0
 10
8.995833331084377
 20
-8.889999997777501
 30
0.0
 10
9.595555553156668
 20
-9.419166664311875
 30
0.0
 10
9.419166664311875
 20
-10.37166666407375
 30
0.0
 10
8.92527777554646
 20
-10.93611110837709
 30
0.0
 10
8.25499999793625
 20
-11.64166666375625
 30
0.0
 10
7.619999998095001
 20
-12.52361110798021
 30
0.0
 10
7.690555553632918
 20
-13.54666666328
 30
0.0
 10
7.796388886939793
 20
-14.53444444081084
 30
0.0
 10
8.607777775625834
 20
-15.38111110726584
 30
0.0
 10
9.627826976190939
 20
-15.26192143449699
 30
0.0
  0
SPLINE
  5
49
330
1F
100
AcDbEntity
  8
Path
 62
   250
420
  2301728
370
    35
100
AcDbSpline
210
0.0
220
0.0
230
1.0
 70
     8
 71
     3
 72
    29
 73
    25
 74
     0
 42
0.0000000001
 43
0.0000000001
 12
1.0
 22
0.0
 32
0.0
 13
1.0
 23
0.0
 33
0.0
 40
0.0
 40
0.0
 40
0.0
 40
0.0
 40
1.0
 40
1.0
 40
1.0
 40
2.0
 40
2.0
 40
2.0
 40
3.0
 40
3.0
 40
3.0
 40
4.0
 40
4.0
 40
4.0
 40
5.0
 40
5.0
 40
5.0
 40
6.0
 40
6.0
 40
6.0
 40
7.0
 40
7.0
 40
7.0
 40
8.0
 40
8.0
 40
8.0
 40
8.0
 10
10.24507908603804
 20
-12.65932224905736
 30
0.0
 10
10.01888888638417
 20
-12.48833333021125
 30
0.0
 10
9.948333330846252
 20
-12.17083333029063
 30
0.0
 10
9.983611108615209
 20
-11.92388888590792
 30
0.0
 10
10.15999999746
 20
-11.28888888606667
 30
0.0
 10
10.54805555291854
 20
-10.72444444176334
 30
0.0
 10
10.79499999730125
 20
-10.12472221969104
 30
0.0
 10
11.04194444168396
 20
-9.454444442080835
 30
0.0
 10
10.97138888614604
 20
-8.748888886701668
 30
0.0
 10
10.65388888622542
 20
-8.113888886860417
 30
0.0
 10
10.08944444192209
 20
-6.984999998253751
 30
0.0
 10
8.748888886701668
 20
-6.385277776181459
 30
0.0
 10
7.549444442557085
 20
-6.773333331640001
 30
0.0
 10
6.385277776181459
 20
-7.126111109329584
 30
0.0
 10
5.573888887495418
 20
-8.29027777570521
 30
0.0
 10
5.71499999857125
 20
-9.489722219849792
 30
0.0
 10
5.785555554109167
 20
-9.983611108615209
 30
0.0
 10
6.032499998491875
 20
-10.44222221961167
 30
0.0
 10
6.138333331798751
 20
-10.93611110837709
 30
0.0
 10
6.244166665105626
 20
-11.46527777491146
 30
0.0
 10
6.173611109567709
 20
-11.95916666367688
 30
0.0
 10
5.997222220722917
 20
-12.41777777467333
 30
0.0
 10
5.926666665185
 20
-12.52361110798021
 30
0.0
 10
5.856111109647084
 20
-12.59416666351813
 30
0.0
 10
5.823824643692427
 20
-12.73194356811964
 30
0.0
  0
SPLINE
  5
4A
330
1F
100
AcDbEntity
  8
Path
 62
   250
420
  2301728
370
    35
100
AcDbSpline
210
0.0
220
0.0
230
1.0
 70
     8
 71
     3
 72
    44
 73
    40
 74
     0
 42
0.0000000001
 43
0.0000000001
 12
1.0
 22
0.0
 32
0.0
 13
1.0
 23
0.0
 33
0.0
 40
0.0
 40
0.0
 40
0.0
 40
0.0
 40
1.0
 40
1.0
 40
1.0
 40
2.0
 40
2.0
 40
2.0
 40
3.0
 40
3.0
 40
3.0
 40
4.0
 40
4.0
 40
4.0
 40
5.0
 40
5.0
 40
5.0
 40
6.0
 40
6.0
 40
6.0
 40
7.0
 40
7.0
 40
7.0
 40
8.0
 40
8.0
 40
8.0
 40
9.0
 40
9.0
 40
9.0
 40
10.0
 40
10.0
 40
10.0
 40
11.0
 40
11.0
 40
11.0
 40
12.0
 40
12.0
 40
12.0
 40
13.0
 40
13.0
 40
13.0
 40
13.0
 10
12.3965258418987
 20
-13.81675784295423
 30
0.0
 10
12.55888888574917
 20
-14.11111110758334
 30
0.0
 10
12.66472221905604
 20
-14.49916666304188
 30
0.0
 10
12.98222221897667
 20
-14.67555555188667
 30
0.0
 10
13.29972221889729
 20
-14.8166666629625
 30
0.0
 10
13.65249999658688
 20
-14.64027777411771
 30
0.0
 10
14.00527777427646
 20
-14.67555555188667
 30
0.0
 10
14.11111110758334
 20
-14.67555555188667
 30
0.0
 10
14.18166666312125
 20
-14.64027777411771
 30
0.0
 10
14.28749999642813
 20
-14.60499999634875
 30
0.0
 10
14.67555555188667
 20
-14.393333329735
 30
0.0
 10
14.92249999626938
 20
-14.07583332981438
 30
0.0
 10
15.20472221842104
 20
-13.75833332989375
 30
0.0
 10
15.59277777387959
 20
-13.26444444112833
 30
0.0
 10
15.91027777380021
 20
-12.77055555236292
 30
0.0
 10
16.01611110710709
 20
-12.17083333029063
 30
0.0
 10
16.01611110710709
 20
-12.02972221921479
 30
0.0
 10
16.05138888487604
 20
-11.85333333037
 30
0.0
 10
16.086666662645
 20
-11.71222221929417
 30
0.0
 10
16.12194444041396
 20
-11.14777777499084
 30
0.0
 10
16.086666662645
 20
-10.5833333306875
 30
0.0
 10
15.87499999603125
 20
-10.05416666415313
 30
0.0
 10
15.73388888495542
 20
-9.736666664232501
 30
0.0
 10
15.52222221834167
 20
-9.489722219849792
 30
0.0
 10
15.27527777395896
 20
-9.278055553236042
 30
0.0
 10
15.02833332957625
 20
-9.066388886622292
 30
0.0
 10
14.74611110742459
 20
-8.92527777554646
 30
0.0
 10
14.42861110750396
 20
-8.819444442239584
 30
0.0
 10
13.75833332989375
 20
-8.643055553394793
 30
0.0
 10
13.01749999674563
 20
-8.50194444231896
 30
0.0
 10
12.34722221913542
 20
-8.784166664470627
 30
0.0
 10
11.85333333037
 20
-8.995833331084377
 30
0.0
 10
11.46527777491146
 20
-9.419166664311875
 30
0.0
 10
11.28888888606667
 20
-9.913055553077292
 30
0.0
 10
11.07722221945292
 20
-10.61861110845646
 30
0.0
 10
11.14777777499084
 20
-11.32416666383563
 30
0.0
 10
11.11249999722188
 20
-12.02972221921479
 30
0.0
 10
11.07722221945292
 20
-12.31194444136646
 30
0.0
 10
10.83027777507021
 20
-12.48833333021125
 30
0.0
 10
10.62347100115582
 20
-12.6138187119514
 30
0.0
  0
SPLINE
  5
4B
330
1F
100
AcDbEntity
  8
Path
 62
   250
420
  2301728
370
    35
100
AcDbSpline
210
0.0
220
0.0
230
1.0
 70
     8
 71
     3
 72
    41
 73
    37
 74
     0
 42
0.0000000001
 43
0.0000000001
 12
1.0
 22
0.0
 32
0.0
 13
1.0
 23
0.0
 33
0.0
 40
0.0
 40
0.0
 40
0.0
 40
0.0
 40
1.0
 40
1.0
 40
1.0
 40
2.0
 40
2.0
 40
2.0
 40
3.0
 40
3.0
 40
3.0
 40
4.0
 40
4.0
 40
4.0
 40
5.0
 40
5.0
 40
5.0
 40
6.0
 40
6.0
 40
6.0
 40
7.0
 40
7.0
 40
7.0
 40
8.0
 40
8.0
 40
8.0
 40
9.0
 40
9.0
 40
9.0
 40
10.0
 40
10.0
 40
10.0
 40
11.0
 40
11.0
 40
11.0
 40
12.0
 40
12.0
 40
12.0
 40
12.0
 10
11.4393986482632
 20
-9.322322877036825
 30
0.0
 10
11.44272747177582
 20
-9.201489382668704
 30
0.0
 10
11.44112765555986
 20
-9.10312006404909
 30
0.0
 10
11.43911119810865
 20
-9.036375645391733
 30
0.0
 10
11.4318786507743
 20
-8.796992647302977
 30
0.0
 10
11.41114563550713
 20
-8.69512171210031
 30
0.0
 10
11.47900002086615
 20
-8.614214182925386
 30
0.0
 10
11.5179360594035
 20
-8.567787753188458
 30
0.0
 10
11.57012925600504
 20
-8.547237758618943
 30
0.0
 10
11.60638888598729
 20
-8.537222220087918
 30
0.0
 10
11.92388888590792
 20
-8.50194444231896
 30
0.0
 10
12.13555555252167
 20
-8.819444442239584
 30
0.0
 10
12.45305555244229
 20
-8.678333331163751
 30
0.0
 10
12.59416666351813
 20
-8.607777775625834
 30
0.0
 10
12.59416666351813
 20
-8.431388886781043
 30
0.0
 10
12.55888888574917
 20
-8.325555553474167
 30
0.0
 10
12.52361110798021
 20
-8.219722220167293
 30
0.0
 10
12.41777777467333
 20
-8.149166664629377
 30
0.0
 10
12.45305555244229
 20
-8.008055553553543
 30
0.0
 10
12.47834470648871
 20
-8.009005646292835
 30
0.0
 10
12.75177870537597
 20
-8.014620075341453
 30
0.0
 10
12.91697857004007
 20
-7.792438869647486
 30
0.0
 10
13.03756014180083
 20
-7.630266382641046
 30
0.0
 10
13.02240387485041
 20
-7.451734536745194
 30
0.0
 10
13.01749999674563
 20
-7.408333331481251
 30
0.0
 10
13.1233333300525
 20
-7.231944442636459
 30
0.0
 10
13.40555555220417
 20
-7.373055553712293
 30
0.0
 10
13.54666666328
 20
-7.267222220405418
 30
0.0
 10
13.61722221881792
 20
-7.161388887098543
 30
0.0
 10
13.61722221881792
 20
-7.020277776022709
 30
0.0
 10
13.61722221881792
 20
-6.879166664946876
 30
0.0
 10
13.62869546337614
 20
-6.797316579179036
 30
0.0
 10
13.66208166840523
 20
-6.766012503733845
 30
0.0
 10
13.68007906253864
 20
-6.753407760627187
 30
0.0
 10
13.77116738716865
 20
-6.689614819867582
 30
0.0
 10
13.96516286712774
 20
-6.756690828965397
 30
0.0
 10
14.14284797314886
 20
-6.949041275830286
 30
0.0
  0
SPLINE
  5
4C
330
1F
100
AcDbEntity
  8
Path
 62
   250
420
  2301728
370
    35
100
AcDbSpline
210
0.0
220
0.0
230
1.0
 70
     8
 71
     3
 72
    92
 73
    88
 74
     0
 42
0.0000000001
 43
0.0000000001
 12
1.0
 22
0.0
 32
0.0
 13
1.0
 23
0.0
 33
0.0
 40
0.0
 40
0.0
 40
0.0
 40
0.0
 40
1.0
 40
1.0
 40
1.0
 40
2.0
 40
2.0
 40
2.0
 40
3.0
 40
3.0
 40
3.0
 40
4.0
 40
4.0
 40
4.0
 40
5.0
 40
5.0
 40
5.0
 40
6.0
 40
6.0
 40
6.0
 40
7.0
 40
7.0
 40
7.0
 40
8.0
 40
8.0
 40
8.0
 40
9.0
 40
9.0
 40
9.0
 40
10.0
 40
10.0
 40
10.0
 40
11.0
 40
11.0
 40
11.0
 40
12.0
 40
12.0
 40
12.0
 40
13.0
 40
13.0
 40
13.0
 40
14.0
 40
14.0
 40
14.0
 40
15.0
 40
15.0
 40
15.0
 40
16.0
 40
16.0
 40
16.0
 40
17.0
 40
17.0
 40
17.0
 40
18.0
 40
18.0
 40
18.0
 40
19.0
 40
19.0
 40
19.0
 40
20.0
 40
20.0
 40
20.0
 40
21.0
 40
21.0
 40
21.0
 40
22.0
 40
22.0
 40
22.0
 40
23.0
 40
23.0
 40
23.0
 40
24.0
 40
24.0
 40
24.0
 40
25.0
 40
25.0
 40
25.0
 40
26.0
 40
26.0
 40
26.0
 40
27.0
 40
27.0
 40
27.0
 40
28.0
 40
28.0
 40
28.0
 40
29.0
 40
29.0
 40
29.0
 40
29.0
 10
5.779155750949147
 20
-12.51498006719732
 30
0.0
 10
5.891388887416042
 20
-12.34722221913542
 30
0.0
 10
5.750277776340209
 20
-12.17083333029063
 30
0.0
 10
5.644444443033334
 20
-12.02972221921479
 30
0.0
 10
5.679722220802292
 20
-11.78277777483208
 30
0.0
 10
5.785555554109167
 20
-11.60638888598729
 30
0.0
 10
5.961944442953959
 20
-11.39472221937354
 30
0.0
 10
6.279444442874584
 20
-10.90083333060813
 30
0.0
 10
5.644444443033334
 20
-10.65388888622542
 30
0.0
 10
5.432777776419584
 20
-10.33638888630479
 30
0.0
 10
5.468055554188543
 20
-10.23055555299792
 30
0.0
 10
5.503333331957501
 20
-10.08944444192209
 30
0.0
 10
5.573888887495418
 20
-9.983611108615209
 30
0.0
 10
5.750277776340209
 20
-9.560277775387709
 30
0.0
 10
5.609166665264376
 20
-9.066388886622292
 30
0.0
 10
5.256388887574793
 20
-8.71361110893271
 30
0.0
 10
5.185833332036876
 20
-8.607777775625834
 30
0.0
 10
5.185833332036876
 20
-8.360833331243127
 30
0.0
 10
5.291666665343751
 20
-8.325555553474167
 30
0.0
 10
5.785555554109167
 20
-8.07861110909146
 30
0.0
 10
6.208888887336667
 20
-7.725833331401876
 30
0.0
 10
6.455833331719376
 20
-7.267222220405418
 30
0.0
 10
6.596944442795209
 20
-7.020277776022709
 30
0.0
 10
6.632222220564167
 20
-6.738055553871042
 30
0.0
 10
6.561666665026251
 20
-6.455833331719376
 30
0.0
 10
6.561666665026251
 20
-6.420555553950417
 30
0.0
 10
6.596944442795209
 20
-6.420555553950417
 30
0.0
 10
6.596944442795209
 20
-6.385277776181459
 30
0.0
 10
6.632222220564167
 20
-6.349999998412501
 30
0.0
 10
6.702777776102084
 20
-6.314722220643542
 30
0.0
 10
6.773333331640001
 20
-6.349999998412501
 30
0.0
 10
6.984999998253751
 20
-6.491111109488334
 30
0.0
 10
7.196666664867501
 20
-6.526388887257292
 30
0.0
 10
7.44361110925021
 20
-6.596944442795209
 30
0.0
 10
7.619999998095001
 20
-6.596944442795209
 30
0.0
 10
7.796388886939793
 20
-6.632222220564167
 30
0.0
 10
7.937499998015626
 20
-6.561666665026251
 30
0.0
 10
8.07861110909146
 20
-6.455833331719376
 30
0.0
 10
8.184444442398334
 20
-6.314722220643542
 30
0.0
 10
8.360833331243127
 20
-6.208888887336667
 30
0.0
 10
8.572499997856877
 20
-6.103055554029792
 30
0.0
 10
8.819444442239584
 20
-6.279444442874584
 30
0.0
 10
8.960555553315418
 20
-6.420555553950417
 30
0.0
 10
9.136944442160209
 20
-6.632222220564167
 30
0.0
 10
9.313333331005001
 20
-6.808611109408959
 30
0.0
 10
9.560277775387709
 20
-6.914444442715834
 30
0.0
 10
9.877777775308335
 20
-7.020277776022709
 30
0.0
 10
10.19527777522896
 20
-7.161388887098543
 30
0.0
 10
10.5833333306875
 20
-7.090833331560626
 30
0.0
 10
10.61861110845646
 20
-7.090833331560626
 30
0.0
 10
10.65388888622542
 20
-7.161388887098543
 30
0.0
 10
10.65388888622542
 20
-7.196666664867501
 30
0.0
 10
10.61861110845646
 20
-7.408333331481251
 30
0.0
 10
10.5833333306875
 20
-7.619999998095001
 30
0.0
 10
10.68916666399438
 20
-7.831666664708751
 30
0.0
 10
10.83027777507021
 20
-8.0433333313225
 30
0.0
 10
11.04194444168396
 20
-8.149166664629377
 30
0.0
 10
11.28888888606667
 20
-8.25499999793625
 30
0.0
 10
11.35944444160458
 20
-8.29027777570521
 30
0.0
 10
11.4299999971425
 20
-8.396111109012084
 30
0.0
 10
11.39472221937354
 20
-8.50194444231896
 30
0.0
 10
11.28888888606667
 20
-8.678333331163751
 30
0.0
 10
11.11249999722188
 20
-8.819444442239584
 30
0.0
 10
11.11249999722188
 20
-9.031111108853334
 30
0.0
 10
11.11249999722188
 20
-9.172222219929168
 30
0.0
 10
11.21833333052875
 20
-9.313333331005001
 30
0.0
 10
11.25361110829771
 20
-9.489722219849792
 30
0.0
 10
11.25361110829771
 20
-9.524999997618751
 30
0.0
 10
11.25361110829771
 20
-9.595555553156668
 30
0.0
 10
11.21833333052875
 20
-9.630833330925626
 30
0.0
 10
11.11249999722188
 20
-9.771944442001459
 30
0.0
 10
10.97138888614604
 20
-9.877777775308335
 30
0.0
 10
10.93611110837709
 20
-10.08944444192209
 30
0.0
 10
10.90083333060813
 20
-10.26583333076688
 30
0.0
 10
11.04194444168396
 20
-10.47749999738063
 30
0.0
 10
10.93611110837709
 20
-10.65388888622542
 30
0.0
 10
10.75972221953229
 20
-10.90083333060813
 30
0.0
 10
10.44222221961167
 20
-11.04194444168396
 30
0.0
 10
10.47749999738063
 20
-11.39472221937354
 30
0.0
 10
10.47749999738063
 20
-11.57111110821833
 30
0.0
 10
10.68916666399438
 20
-11.67694444152521
 30
0.0
 10
10.68916666399438
 20
-11.85333333037
 30
0.0
 10
10.65388888622542
 20
-12.02972221921479
 30
0.0
 10
10.44222221961167
 20
-12.10027777475271
 30
0.0
 10
10.33638888630479
 20
-12.24138888582854
 30
0.0
 10
10.30111110853584
 20
-12.31194444136646
 30
0.0
 10
10.33638888630479
 20
-12.38249999690438
 30
0.0
 10
10.38863213449503
 20
-12.44007603978203
 30
0.0
  0
SPLINE
  5
4D
330
1F
100
AcDbEntity
  8
Path
 62
   250
420
  2301728
370
    35
100
AcDbSpline
210
0.0
220
0.0
230
1.0
 70
     8
 71
     3
 72
    44
 73
    40
 74
     0
 42
0.0000000001
 43
0.0000000001
 12
1.0
 22
0.0
 32
0.0
 13
1.0
 23
0.0
 33
0.0
 40
0.0
 40
0.0
 40
0.0
 40
0.0
 40
1.0
 40
1.0
 40
1.0
 40
2.0
 40
2.0
 40
2.0
 40
3.0
 40
3.0
 40
3.0
 40
4.0
 40
4.0
 40
4.0
 40
5.0
 40
5.0
 40
5.0
 40
6.0
 40
6.0
 40
6.0
 40
7.0
 40
7.0
 40
7.0
 40
8.0
 40
8.0
 40
8.0
 40
9.0
 40
9.0
 40
9.0
 40
10.0
 40
10.0
 40
10.0
 40
11.0
 40
11.0
 40
11.0
 40
12.0
 40
12.0
 40
12.0
 40
13.0
 40
13.0
 40
13.0
 40
13.0
 10
12.67092016115248
 20
-8.590503313248155
 30
0.0
 10
12.67655719864022
 20
-8.525466370040672
 30
0.0
 10
12.68949030241031
 20
-8.433864510864897
 30
0.0
 10
12.72197001668984
 20
-8.328871457878721
 30
0.0
 10
12.85044193370417
 20
-7.913572194982057
 30
0.0
 10
13.16366247907671
 20
-7.680128218532172
 30
0.0
 10
13.23885276463462
 20
-7.626932714462897
 30
0.0
 10
13.53863205465299
 20
-7.414845100244543
 30
0.0
 10
13.98621132395028
 20
-7.286507218976443
 30
0.0
 10
14.02374779244676
 20
-7.2759630736069
 30
0.0
 10
14.04630240195175
 20
-7.269627327691057
 30
0.0
 10
14.08783518121112
 20
-7.258406544036365
 30
0.0
 10
14.138610505702
 20
-7.231294180863618
 30
0.0
 10
14.28143447518941
 20
-7.155030532743578
 30
0.0
 10
14.42025998072925
 20
-6.994211322307438
 30
0.0
 10
14.44491071551855
 20
-6.80374975670157
 30
0.0
 10
14.45668863570875
 20
-6.712750789235713
 30
0.0
 10
14.42823322359292
 20
-6.724461422404715
 30
0.0
 10
14.41938578774986
 20
-6.465542579729915
 30
0.0
 10
14.41289285935251
 20
-6.275522955279264
 30
0.0
 10
14.4267141518024
 20
-6.225204105940174
 30
0.0
 10
14.45767371769906
 20
-6.210292225450737
 30
0.0
 10
14.50570157854046
 20
-6.187158947563455
 30
0.0
 10
14.58283941963988
 20
-6.255082773128342
 30
0.0
 10
14.60444232151708
 20
-6.274105083168616
 30
0.0
 10
14.83044381512648
 20
-6.473111023874074
 30
0.0
 10
14.95070994533188
 20
-7.032838917139632
 30
0.0
 10
14.7015961673858
 20
-7.392017574581575
 30
0.0
 10
14.62785389852403
 20
-7.49834075740276
 30
0.0
 10
14.50944166032663
 20
-7.58161948120464
 30
0.0
 10
14.27261718393185
 20
-7.748176928808399
 30
0.0
 10
14.18977340343498
 20
-7.806439953018009
 30
0.0
 10
14.09111448147614
 20
-7.87043852291439
 30
0.0
 10
13.86421618644823
 20
-8.02895221085626
 30
0.0
 10
13.71318320037487
 20
-8.134465257942242
 30
0.0
 10
13.63520454065858
 20
-8.191124697862701
 30
0.0
 10
13.57067790221985
 20
-8.29696556731595
 30
0.0
 10
13.51217802769563
 20
-8.392920627615041
 30
0.0
 10
13.49042224970628
 20
-8.487163367798729
 30
0.0
 10
13.48134011673329
 20
-8.552215921595128
 30
0.0
  0
SPLINE
  5
4E
330
1F
100
AcDbEntity
  8
Path
 62
   250
420
  2301728
370
    35
100
AcDbSpline
210
0.0
220
0.0
230
1.0
 70
     8
 71
     3
 72
    59
 73
    55
 74
     0
 42
0.0000000001
 43
0.0000000001
 12
1.0
 22
0.0
 32
0.0
 13
1.0
 23
0.0
 33
0.0
 40
0.0
 40
0.0
 40
0.0
 40
0.0
 40
1.0
 40
1.0
 40
1.0
 40
2.0
 40
2.0
 40
2.0
 40
3.0
 40
3.0
 40
3.0
 40
4.0
 40
4.0
 40
4.0
 40
5.0
 40
5.0
 40
5.0
 40
6.0
 40
6.0
 40
6.0
 40
7.0
 40
7.0
 40
7.0
 40
8.0
 40
8.0
 40
8.0
 40
9.0
 40
9.0
 40
9.0
 40
10.0
 40
10.0
 40
10.0
 40
11.0
 40
11.0
 40
11.0
 40
12.0
 40
12.0
 40
12.0
 40
13.0
 40
13.0
 40
13.0
 40
14.0
 40
14.0
 40
14.0
 40
15.0
 40
15.0
 40
15.0
 40
16.0
 40
16.0
 40
16.0
 40
17.0
 40
17.0
 40
17.0
 40
18.0
 40
18.0
 40
18.0
 40
18.0
 10
13.74935347319298
 20
-8.494784564967505
 30
0.0
 10
13.79534765110574
 20
-8.431439486620983
 30
0.0
 10
13.8907035877681
 20
-8.320499875849563
 30
0.0
 10
14.03650971803493
 20
-8.277821602341353
 30
0.0
 10
14.13152329833344
 20
-8.250010530740504
 30
0.0
 10
14.17784906668666
 20
-8.271708172743542
 30
0.0
 10
14.18966036123937
 20
-8.277821602341353
 30
0.0
 10
14.22242860226579
 20
-8.294782238052173
 30
0.0
 10
14.23064084862876
 20
-8.321821931242027
 30
0.0
 10
14.27261718393185
 20
-8.386302814506344
 30
0.0
 10
14.27261933711653
 20
-8.386305505987192
 30
0.0
 10
14.27303274857476
 20
-8.386941772059624
 30
0.0
 10
14.36734439066815
 20
-8.515002430800395
 30
0.0
 10
14.50761252994243
 20
-8.705465611294771
 30
0.0
 10
15.2870018645322
 20
-8.827160917830374
 30
0.0
 10
15.39571938871563
 20
-8.622409742107093
 30
0.0
 10
15.40385304383784
 20
-8.607091448009632
 30
0.0
 10
15.41513896132905
 20
-8.576931251924778
 30
0.0
 10
15.44038828145892
 20
-8.571359886569725
 30
0.0
 10
15.50915669371386
 20
-8.55618585584571
 30
0.0
 10
15.60174686465697
 20
-8.740640036199173
 30
0.0
 10
15.61268181304562
 20
-8.762797383131025
 30
0.0
 10
15.68530227269
 20
-8.90994279426774
 30
0.0
 10
15.69504005039753
 20
-9.042168788768647
 30
0.0
 10
15.69563863573809
 20
-9.049954704565312
 30
0.0
 10
15.73399546759699
 20
-9.548875585923872
 30
0.0
 10
16.4500951683457
 20
-10.21851709746165
 30
0.0
 10
16.66559019731744
 20
-10.3453504409358
 30
0.0
 10
16.67774600141867
 20
-10.35250547362173
 30
0.0
 10
16.71097825374326
 20
-10.37124894624617
 30
0.0
 10
16.72940305503532
 20
-10.40916329865368
 30
0.0
 10
16.7763963106388
 20
-10.50586712892464
 30
0.0
 10
16.67922308610797
 20
-10.62885165478636
 30
0.0
 10
16.60815937898598
 20
-10.76651444059993
 30
0.0
 10
16.53977423360377
 20
-10.89898912793118
 30
0.0
 10
16.51790003045712
 20
-11.00372649023681
 30
0.0
 10
16.47415270075614
 20
-11.21320229144041
 30
0.0
 10
16.45406456430011
 20
-11.30938828079624
 30
0.0
 10
16.40793796552964
 20
-11.57060188004192
 30
0.0
 10
16.46138969857563
 20
-11.8959976081778
 30
0.0
 10
16.49910918776976
 20
-12.12562075841608
 30
0.0
 10
16.53964719570775
 20
-12.3724004841709
 30
0.0
 10
16.67197223670386
 20
-12.47031117445404
 30
0.0
 10
16.6852530797995
 20
-12.48013830932571
 30
0.0
 10
16.72203593365858
 20
-12.50517123439541
 30
0.0
 10
16.72940305503532
 20
-12.54688595776009
 30
0.0
 10
16.74430955256306
 20
-12.63129618011041
 30
0.0
 10
16.62750789650502
 20
-12.72025069872424
 30
0.0
 10
16.59539637680547
 20
-12.74470549370781
 30
0.0
 10
16.54297601922038
 20
-12.78462769082783
 30
0.0
 10
16.50781128364703
 20
-12.79637654302487
 30
0.0
 10
16.47415270075614
 20
-12.81489931421978
 30
0.0
 10
16.40574387034247
 20
-12.85254667172719
 30
0.0
 10
16.31986732922624
 20
-12.93121865690988
 30
0.0
 10
16.25718919983382
 20
-13.11481856124224
 30
0.0
  0
SPLINE
  5
4F
330
1F
100
AcDbEntity
  8
Path
 62
   250
420
  2301728
370
    35
100
AcDbSpline
210
0.0
220
0.0
230
1.0
 70
     8
 71
     3
 72
    17
 73
    13
 74
     0
 42
0.0000000001
 43
0.0000000001
 12
1.0
 22
0.0
 32
0.0
 13
1.0
 23
0.0
 33
0.0
 40
0.0
 40
0.0
 40
0.0
 40
0.0
 40
1.0
 40
1.0
 40
1.0
 40
2.0
 40
2.0
 40
2.0
 40
3.0
 40
3.0
 40
3.0
 40
4.0
 40
4.0
 40
4.0
 40
4.0
 10
4.790060224395205
 20
-15.80771189824263
 30
0.0
 10
4.775505772562363
 20
-15.81981710250392
 30
0.0
 10
4.746256911892592
 20
-15.84794307736397
 30
0.0
 10
4.739009830561668
 20
-15.8906687209351
 30
0.0
 10
4.726415853378401
 20
-15.96492129456563
 30
0.0
 10
4.786272772546108
 20
-16.04789641932787
 30
0.0
 10
4.866635007701256
 20
-16.0629622525218
 30
0.0
 10
4.930633039301468
 20
-16.07496087414153
 30
0.0
 10
4.995343236734021
 20
-16.04158543503583
 30
0.0
 10
5.026166613699785
 20
-15.99276843200984
 30
0.0
 10
5.071807131029141
 20
-15.9204849457676
 30
0.0
 10
5.048274975680206
 20
-15.80623266036865
 30
0.0
 10
4.955972793187819
 20
-15.73751807773066
 30
0.0
  0
SPLINE
  5
50
330
1F
100
AcDbEntity
  8
Path
 62
   250
420
  2301728
370
    35
100
AcDbSpline
210
0.0
220
0.0
230
1.0
 70
     8
 71
     3
 72
    20
 73
    16
 74
     0
 42
0.0000000001
 43
0.0000000001
 12
1.0
 22
0.0
 32
0.0
 13
1.0
 23
0.0
 33
0.0
 40
0.0
 40
0.0
 40
0.0
 40
0.0
 40
1.0
 40
1.0
 40
1.0
 40
2.0
 40
2.0
 40
2.0
 40
3.0
 40
3.0
 40
3.0
 40
4.0
 40
4.0
 40
4.0
 40
5.0
 40
5.0
 40
5.0
 40
5.0
 10
5.523905396669968
 20
-14.550603015229
 30
0.0
 10
5.508786272155247
 20
-14.55864731318705
 30
0.0
 10
5.481428445929177
 20
-14.57586094809757
 30
0.0
 10
5.460092538952089
 20
-14.60803491015279
 30
0.0
 10
5.446881136062325
 20
-14.62795832798092
 30
0.0
 10
5.427007241481791
 20
-14.65792742892558
 30
0.0
 10
5.434567611183406
 20
-14.69099065625293
 30
0.0
 10
5.443987255854716
 20
-14.73218430892546
 30
0.0
 10
5.491364854923275
 20
-14.75793316790069
 30
0.0
 10
5.530286359464054
 20
-14.76118447676489
 30
0.0
 10
5.587290308933039
 20
-14.76594624468091
 30
0.0
 10
5.638201284058658
 20
-14.72345960460907
 30
0.0
 10
5.657912074899813
 20
-14.68460969345884
 30
0.0
 10
5.695758063693791
 20
-14.61001584005681
 30
0.0
 10
5.64931064040625
 20
-14.48826185923872
 30
0.0
 10
5.530286359464054
 20
-14.39745237202455
 30
0.0
  0
SPLINE
  5
51
330
1F
100
AcDbEntity
  8
Path
 62
   250
420
  2301728
370
    35
100
AcDbSpline
210
0.0
220
0.0
230
1.0
 70
     8
 71
     3
 72
    53
 73
    49
 74
     0
 42
0.0000000001
 43
0.0000000001
 12
1.0
 22
0.0
 32
0.0
 13
1.0
 23
0.0
 33
0.0
 40
0.0
 40
0.0
 40
0.0
 40
0.0
 40
1.0
 40
1.0
 40
1.0
 40
2.0
 40
2.0
 40
2.0
 40
3.0
 40
3.0
 40
3.0
 40
4.0
 40
4.0
 40
4.0
 40
5.0
 40
5.0
 40
5.0
 40
6.0
 40
6.0
 40
6.0
 40
7.0
 40
7.0
 40
7.0
 40
8.0
 40
8.0
 40
8.0
 40
9.0
 40
9.0
 40
9.0
 40
10.0
 40
10.0
 40
10.0
 40
11.0
 40
11.0
 40
11.0
 40
12.0
 40
12.0
 40
12.0
 40
13.0
 40
13.0
 40
13.0
 40
14.0
 40
14.0
 40
14.0
 40
15.0
 40
15.0
 40
15.0
 40
16.0
 40
16.0
 40
16.0
 40
16.0
 10
5.36437379067144
 20
-15.95448050206064
 30
0.0
 10
5.385139103708783
 20
-16.01487517910175
 30
0.0
 10
5.443636286752156
 20
-16.15588186072069
 30
0.0
 10
5.581336753297592
 20
-16.21611289572625
 30
0.0
 10
5.663459755223404
 20
-16.25203447571401
 30
0.0
 10
5.767855299461357
 20
-16.25664552070255
 30
0.0
 10
5.779155750949147
 20
-16.22887482131442
 30
0.0
 10
5.789126072601927
 20
-16.20437265626792
 30
0.0
 10
5.718838050260286
 20
-16.17380066361335
 30
0.0
 10
5.645149611015471
 20
-16.0821062174964
 30
0.0
 10
5.555217546557702
 20
-15.9701987502121
 30
0.0
 10
5.514694610912451
 20
-15.83503581181001
 30
0.0
 10
5.53666786055431
 20
-15.82047490042314
 30
0.0
 10
5.554836971165816
 20
-15.80843536829453
 30
0.0
 10
5.59813697674988
 20
-15.89051369163827
 30
0.0
 10
5.708961930437181
 20
-15.94171857647247
 30
0.0
 10
5.83715070366631
 20
-16.00094622741795
 30
0.0
 10
5.987378936966155
 20
-15.9873101088504
 30
0.0
 10
5.996118713575298
 20
-15.95448050206064
 30
0.0
 10
5.99992500579033
 20
-15.94018335579686
 30
0.0
 10
5.975678531424375
 20
-15.92681746190643
 30
0.0
 10
5.881256000320051
 20
-15.85876175377999
 30
0.0
 10
5.744190184958539
 20
-15.75997148755578
 30
0.0
 10
5.675812575722704
 20
-15.71022107897175
 30
0.0
 10
5.683437002668497
 20
-15.69284918498738
 30
0.0
 10
5.690019826526172
 20
-15.67785010051847
 30
0.0
 10
5.74960059975889
 20
-15.68902728218343
 30
0.0
 10
5.868493536435709
 20
-15.71199314996198
 30
0.0
 10
5.991277816122353
 20
-15.73571047919324
 30
0.0
 10
6.045100973525346
 20
-15.75323417269744
 30
0.0
 10
6.053550070202922
 20
-15.73751807773066
 30
0.0
 10
6.067220101429159
 20
-15.7120900432725
 30
0.0
 10
5.93407092899744
 20
-15.65181486798104
 30
0.0
 10
5.925924893063333
 20
-15.53969854178294
 30
0.0
 10
5.925557775075686
 20
-15.53464394075067
 30
0.0
 10
5.921207265433219
 20
-15.46407438951235
 30
0.0
 10
5.957831321922272
 20
-15.44397979350229
 30
0.0
 10
6.025706700831899
 20
-15.40673938789908
 30
0.0
 10
6.166622410398178
 20
-15.5800126185144
 30
0.0
 10
6.193937711226853
 20
-15.55884250675754
 30
0.0
 10
6.230021856657827
 20
-15.53087694415602
 30
0.0
 10
6.00503558962423
 20
-15.21227559027245
 30
0.0
 10
6.047169107408836
 20
-15.1759664370426
 30
0.0
 10
6.081563541163529
 20
-15.14632677335372
 30
0.0
 10
6.264266105781211
 20
-15.33038853579957
 30
0.0
 10
6.296037960597758
 20
-15.30359215247836
 30
0.0
 10
6.312541044564444
 20
-15.28967396671795
 30
0.0
 10
6.291623393711112
 20
-15.21608242078366
 30
0.0
 10
6.098218962946204
 20
-14.92709704555751
 30
0.0
  0
SPLINE
  5
52
330
1F
100
AcDbEntity
  8
Path
 62
   250
420
  2301728
370
    35
100
AcDbSpline
210
0.0
220
0.0
230
1.0
 70
     8
 71
     3
 72
    17
 73
    13
 74
     0
 42
0.0000000001
 43
0.0000000001
 12
1.0
 22
0.0
 32
0.0
 13
1.0
 23
0.0
 33
0.0
 40
0.0
 40
0.0
 40
0.0
 40
0.0
 40
1.0
 40
1.0
 40
1.0
 40
2.0
 40
2.0
 40
2.0
 40
3.0
 40
3.0
 40
3.0
 40
4.0
 40
4.0
 40
4.0
 40
4.0
 10
5.512731444782029
 20
-16.38332706465688
 30
0.0
 10
5.464286404409211
 20
-16.41605977813611
 30
0.0
 10
5.391564745084944
 20
-16.47245706782199
 30
0.0
 10
5.326399687389104
 20
-16.55985160413641
 30
0.0
 10
5.058449311581255
 20
-16.9192062844258
 30
0.0
 10
5.300592154131396
 20
-17.28580750774995
 30
0.0
 10
5.100839596638744
 20
-17.52093312143357
 30
0.0
 10
4.901120951804777
 20
-17.75601890120065
 30
0.0
 10
4.539756273618208
 20
-17.52933161827121
 30
0.0
 10
4.237828105290912
 20
-17.76610657141839
 30
0.0
 10
4.01364363040189
 20
-17.94191410040005
 30
0.0
 10
3.967191362448822
 20
-18.2595551339171
 30
0.0
 10
3.963233539862057
 20
-18.50162907455754
 30
0.0
  0
POLYLINE
  5
53
330
1F
100
AcDbEntity
  8
Path
 62
   250
420
  2301728
370
    35
100
AcDb2dPolyline
 66
     1
 10
0.0
 20
0.0
 30
0.0
  0
VERTEX
  5
54
330
53
100
AcDbEntity
  8
Path
 62
   250
420
  2301728
370
    35
100
AcDbVertex
100
AcDb2dVertex
 10
2.315666147288922
 20
-8.017998960397845
 30
0.0
  0
VERTEX
  5
56
330
53
100
AcDbEntity
  8
0
100
AcDbVertex
100
AcDb2dVertex
 10
2.315666147288922
 20
-8.017998960397845
 30
0.0
  0
SEQEND
  5
55
330
53
100
AcDbEntity
  8
Path
 62
   250
420
  2301728
370
    35
  0
ENDSEC
  0
SECTION
  2
OBJECTS
  0
DICTIONARY
  5
C
330
0
100
AcDbDictionary
281
     1
  3
ACAD_GROUP
350
D
  3
ACAD_IMAGE_DICT
350
41
  3
ACAD_IMAGE_VARS
350
43
  3
ACAD_LAYOUT
350
1A
  3
ACAD_MATERIAL
350
3B
  3
ACAD_MLEADERSTYLE
350
58
  3
ACAD_MLINESTYLE
350
17
  3
ACAD_PLOTSETTINGS
350
19
  3
ACAD_PLOTSTYLENAME
350
E
  3
ACAD_TABLESTYLE
350
57
  3
ACAD_VISUALSTYLE
350
2A
  0
SUN
  5
3F
330
29
100
AcDbSun
 90
        1
290
     0
 63
     7
421
 16777215
 40
1.0
291
     1
 91
  2455826
 92
 54000000
292
     0
 70
     2
 71
   256
280
     1
  0
IMAGEDEF_REACTOR
  5
45
330
44
100
AcDbRasterImageDefReactor
 90
        2
330
44
  0
DICTIONARY
  5
D
102
{ACAD_REACTORS
330
C
102
}
330
C
100
AcDbDictionary
281
     1
  0
DICTIONARY
  5
41
102
{ACAD_REACTORS
330
C
102
}
330
C
100
AcDbDictionary
281
     1
  3
C:\Users\mlgcu\Documents\NoodleSign1_1.png
350
42
  0
RASTERVARIABLES
  5
43
102
{ACAD_REACTORS
330
C
102
}
330
C
100
AcDbRasterVariables
 90
        0
 70
     0
 71
     1
 72
     0
  0
DICTIONARY
  5
1A
102
{ACAD_REACTORS
330
C
102
}
330
C
100
AcDbDictionary
281
     1
  3
Layout1
350
1E
  3
Layout2
350
26
  3
Model
350
22
  0
DICTIONARY
  5
3B
102
{ACAD_REACTORS
330
C
102
}
330
C
100
AcDbDictionary
281
     1
  3
ByBlock
350
3D
  3
ByLayer
350
3C
  3
Global
350
3E
  0
DICTIONARY
  5
58
102
{ACAD_REACTORS
330
C
102
}
330
C
100
AcDbDictionary
281
     1
  0
DICTIONARY
  5
17
102
{ACAD_REACTORS
330
C
102
}
330
C
100
AcDbDictionary
281
     1
  3
Standard
350
18
  0
DICTIONARY
  5
19
102
{ACAD_REACTORS
330
C
102
}
330
C
100
AcDbDictionary
281
     1
  0
ACDBDICTIONARYWDFLT
  5
E
102
{ACAD_REACTORS
330
C
102
}
330
C
100
AcDbDictionary
281
     1
  3
Normal
350
F
100
AcDbDictionaryWithDefault
340
F
  0
DICTIONARY
  5
57
102
{ACAD_REACTORS
330
C
102
}
330
C
100
AcDbDictionary
281
     1
  0
DICTIONARY
  5
2A
102
{ACAD_REACTORS
330
C
102
}
330
C
100
AcDbDictionary
281
     1
  3
2dWireframe
350
2F
  3
3D Hidden
350
31
  3
3dWireframe
350
30
  3
Basic
350
32
  3
Brighten
350
36
  3
ColorChange
350
3A
  3
Conceptual
350
34
  3
Dim
350
35
  3
Facepattern
350
39
  3
Flat
350
2B
  3
FlatWithEdges
350
2C
  3
Gouraud
350
2D
  3
GouraudWithEdges
350
2E
  3
Linepattern
350
38
  3
Realistic
350
33
  3
Thicken
350
37
  0
IMAGEDEF
  5
42
102
{ACAD_REACTORS
330
41
330
45
102
}
330
41
100
AcDbRasterImageDef
 90
        0
  1
C:\Users\mlgcu\Documents\NoodleSign1_1.png
 10
392.0
 20
272.0
 11
0.3527777777777777
 21
0.3527777777777777
280
     1
281
     5
  0
LAYOUT
  5
1E
102
{ACAD_REACTORS
330
1A
102
}
330
1A
100
AcDbPlotSettings
  1

  2
none_device
  4

  6

 40
0.0
 41
0.0
 42
0.0
 43
0.0
 44
0.0
 45
0.0
 46
0.0
 47
0.0
 48
0.0
 49
0.0
140
0.0
141
0.0
142
1.0
143
1.0
 70
   688
 72
     0
 73
     0
 74
     5
  7

 75
    16
 76
     0
 77
     2
 78
   300
147
1.0
148
0.0
149
0.0
100
AcDbLayout
  1
Layout1
 70
     1
 71
     1
 10
0.0
 20
0.0
 11
12.0
 21
9.0
 12
0.0
 22
0.0
 32
0.0
 14
1.000000000000000E+20
 24
1.000000000000000E+20
 34
1.000000000000000E+20
 15
-1.000000000000000E+20
 25
-1.000000000000000E+20
 35
-1.000000000000000E+20
146
0.0
 13
0.0
 23
0.0
 33
0.0
 16
1.0
 26
0.0
 36
0.0
 17
0.0
 27
1.0
 37
0.0
 76
     0
330
1B
  0
LAYOUT
  5
26
102
{ACAD_REACTORS
330
1A
102
}
330
1A
100
AcDbPlotSettings
  1

  2
none_device
  4

  6

 40
0.0
 41
0.0
 42
0.0
 43
0.0
 44
0.0
 45
0.0
 46
0.0
 47
0.0
 48
0.0
 49
0.0
140
0.0
141
0.0
142
1.0
143
1.0
 70
   688
 72
     0
 73
     0
 74
     5
  7

 75
    16
 76
     0
 77
     2
 78
   300
147
1.0
148
0.0
149
0.0
100
AcDbLayout
  1
Layout2
 70
     1
 71
     2
 10
0.0
 20
0.0
 11
0.0
 21
0.0
 12
0.0
 22
0.0
 32
0.0
 14
0.0
 24
0.0
 34
0.0
 15
0.0
 25
0.0
 35
0.0
146
0.0
 13
0.0
 23
0.0
 33
0.0
 16
1.0
 26
0.0
 36
0.0
 17
0.0
 27
1.0
 37
0.0
 76
     0
330
23
  0
LAYOUT
  5
22
102
{ACAD_REACTORS
330
1A
102
}
330
1A
100
AcDbPlotSettings
  1

  2
none_device
  4

  6

 40
0.0
 41
0.0
 42
0.0
 43
0.0
 44
0.0
 45
0.0
 46
0.0
 47
0.0
 48
0.0
 49
0.0
140
0.0
141
0.0
142
1.0
143
1.0
 70
  1712
 72
     0
 73
     0
 74
     0
  7

 75
     0
 76
     0
 77
     2
 78
   300
147
1.0
148
0.0
149
0.0
100
AcDbLayout
  1
Model
 70
     1
 71
     0
 10
0.0
 20
0.0
 11
12.0
 21
9.0
 12
0.0
 22
0.0
 32
0.0
 14
1.000000000000000E+20
 24
1.000000000000000E+20
 34
1.000000000000000E+20
 15
-1.000000000000000E+20
 25
-1.000000000000000E+20
 35
-1.000000000000000E+20
146
0.0
 13
0.0
 23
0.0
 33
0.0
 16
1.0
 26
0.0
 36
0.0
 17
0.0
 27
1.0
 37
0.0
 76
     0
330
1F
331
29
  0
MATERIAL
  5
3D
102
{ACAD_REACTORS
330
3B
102
}
330
3B
100
AcDbMaterial
  1
ByBlock
 72
     1
 94
      127
  0
MATERIAL
  5
3C
102
{ACAD_REACTORS
330
3B
102
}
330
3B
100
AcDbMaterial
  1
ByLayer
 72
     1
 94
      127
  0
MATERIAL
  5
3E
102
{ACAD_REACTORS
330
3B
102
}
330
3B
100
AcDbMaterial
  1
Global
 72
     1
 94
      127
  0
MLINESTYLE
  5
18
102
{ACAD_REACTORS
330
17
102
}
330
17
100
AcDbMlineStyle
  2
Standard
 70
     0
  3

 62
   256
 51
90.0
 52
90.0
 71
     2
 49
0.5
 62
   256
  6
BYLAYER
 49
-0.5
 62
   256
  6
BYLAYER
  0
ACDBPLACEHOLDER
  5
F
102
{ACAD_REACTORS
330
E
102
}
330
E
  0
VISUALSTYLE
  5
2F
102
{ACAD_REACTORS
330
2A
102
}
330
2A
100
AcDbVisualStyle
  2
2dWireframe
 70
     4
177
     2
291
     0
 71
     0
176
     1
 72
     2
176
     1
 73
     0
176
     1
 90
        0
176
     1
 40
-0.6
176
     1
 41
-30.0
176
     1
 62
     5
 63
     7
421
 16777215
176
     1
 74
     1
176
     1
 91
        4
176
     1
 64
     7
176
     1
 65
   257
176
     1
 75
     1
176
     1
175
     1
176
     1
 42
1.0
176
     1
 92
        0
176
     1
 66
   257
176
     1
 43
1.0
176
     1
 76
     1
176
     1
 77
     6
176
     1
 78
     2
176
     1
 67
     7
176
     1
 79
     5
176
     1
170
     0
176
     1
171
     0
176
     1
290
     0
176
     1
 93
        1
176
     1
 44
0.0
176
     1
173
     0
176
     1
  0
VISUALSTYLE
  5
31
102
{ACAD_REACTORS
330
2A
102
}
330
2A
100
AcDbVisualStyle
  2
3D Hidden
 70
     6
177
     2
291
     0
 71
     1
176
     1
 72
     2
176
     1
 73
     2
176
     1
 90
        0
176
     1
 40
-0.6
176
     1
 41
-30.0
176
     1
 62
     5
 63
     7
421
 16777215
176
     1
 74
     2
176
     1
 91
        2
176
     1
 64
     7
176
     1
 65
   257
176
     1
 75
     2
176
     1
175
     1
176
     1
 42
40.0
176
     1
 92
        0
176
     1
 66
   257
176
     1
 43
1.0
176
     1
 76
     1
176
     1
 77
     6
176
     1
 78
     2
176
     1
 67
     7
176
     1
 79
     3
176
     1
170
     0
176
     1
171
     0
176
     1
290
     0
176
     1
 93
        1
176
     1
 44
0.0
176
     1
173
     0
176
     1
  0
VISUALSTYLE
  5
30
102
{ACAD_REACTORS
330
2A
102
}
330
2A
100
AcDbVisualStyle
  2
3dWireframe
 70
     5
177
     2
291
     0
 71
     0
176
     1
 72
     2
176
     1
 73
     0
176
     1
 90
        0
176
     1
 40
-0.6
176
     1
 41
-30.0
176
     1
 62
     5
 63
     7
421
 16777215
176
     1
 74
     1
176
     1
 91
        4
176
     1
 64
     7
176
     1
 65
   257
176
     1
 75
     1
176
     1
175
     1
176
     1
 42
1.0
176
     1
 92
        0
176
     1
 66
   257
176
     1
 43
1.0
176
     1
 76
     1
176
     1
 77
     6
176
     1
 78
     2
176
     1
 67
     7
176
     1
 79
     5
176
     1
170
     0
176
     1
171
     0
176
     1
290
     0
176
     1
 93
        1
176
     1
 44
0.0
176
     1
173
     0
176
     1
  0
VISUALSTYLE
  5
32
102
{ACAD_REACTORS
330
2A
102
}
330
2A
100
AcDbVisualStyle
  2
Basic
 70
     7
177
     2
291
     1
 71
     1
176
     1
 72
     0
176
     1
 73
     1
176
     1
 90
        0
176
     1
 40
-0.6
176
     1
 41
-30.0
176
     1
 62
     5
 63
     7
421
 16777215
176
     1
 74
     0
176
     1
 91
        4
176
     1
 64
     7
176
     1
 65
   257
176
     1
 75
     1
176
     1
175
     1
176
     1
 42
1.0
176
     1
 92
        8
176
     1
 66
     7
176
     1
 43
1.0
176
     1
 76
     1
176
     1
 77
     6
176
     1
 78
     2
176
     1
 67
     7
176
     1
 79
     5
176
     1
170
     0
176
     1
171
     0
176
     1
290
     0
176
     1
 93
        1
176
     1
 44
0.0
176
     1
173
     0
176
     1
  0
VISUALSTYLE
  5
36
102
{ACAD_REACTORS
330
2A
102
}
330
2A
100
AcDbVisualStyle
  2
Brighten
 70
    12
177
     2
291
     1
 71
     2
176
     1
 72
     2
176
     1
 73
     0
176
     1
 90
        0
176
     1
 40
-0.6
176
     1
 41
-30.0
176
     1
 62
     5
 63
     7
421
 16777215
176
     1
 74
     1
176
     1
 91
        4
176
     1
 64
     7
176
     1
 65
   257
176
     1
 75
     1
176
     1
175
     1
176
     1
 42
1.0
176
     1
 92
        8
176
     1
 66
     7
176
     1
 43
1.0
176
     1
 76
     1
176
     1
 77
     6
176
     1
 78
     2
176
     1
 67
     7
176
     1
 79
     5
176
     1
170
     0
176
     1
171
     0
176
     1
290
     0
176
     1
 93
        1
176
     1
 44
50.0
176
     1
173
     0
176
     1
  0
VISUALSTYLE
  5
3A
102
{ACAD_REACTORS
330
2A
102
}
330
2A
100
AcDbVisualStyle
  2
ColorChange
 70
    16
177
     2
291
     1
 71
     2
176
     1
 72
     2
176
     1
 73
     3
176
     1
 90
        0
176
     1
 40
-0.6
176
     1
 41
-30.0
176
     1
 62
     5
 63
     8
421
  8421504
176
     1
 74
     1
176
     1
 91
        4
176
     1
 64
     7
176
     1
 65
   257
176
     1
 75
     1
176
     1
175
     1
176
     1
 42
1.0
176
     1
 92
        8
176
     1
 66
     8
424
  8421504
176
     1
 43
1.0
176
     1
 76
     1
176
     1
 77
     6
176
     1
 78
     2
176
     1
 67
     7
176
     1
 79
     5
176
     1
170
     0
176
     1
171
     0
176
     1
290
     0
176
     1
 93
        1
176
     1
 44
0.0
176
     1
173
     0
176
     1
  0
VISUALSTYLE
  5
34
102
{ACAD_REACTORS
330
2A
102
}
330
2A
100
AcDbVisualStyle
  2
Conceptual
 70
     9
177
     2
291
     0
 71
     3
176
     1
 72
     2
176
     1
 73
     0
176
     1
 90
        0
176
     1
 40
-0.6
176
     1
 41
-30.0
176
     1
 62
     5
 63
     7
421
 16777215
176
     1
 74
     2
176
     1
 91
        2
176
     1
 64
     7
176
     1
 65
   257
176
     1
 75
     1
176
     1
175
     1
176
     1
 42
40.0
176
     1
 92
        8
176
     1
 66
     7
176
     1
 43
1.0
176
     1
 76
     1
176
     1
 77
     6
176
     1
 78
     2
176
     1
 67
     7
176
     1
 79
     3
176
     1
170
     0
176
     1
171
     0
176
     1
290
     0
176
     1
 93
        1
176
     1
 44
0.0
176
     1
173
     0
176
     1
  0
VISUALSTYLE
  5
35
102
{ACAD_REACTORS
330
2A
102
}
330
2A
100
AcDbVisualStyle
  2
Dim
 70
    11
177
     2
291
     1
 71
     2
176
     1
 72
     2
176
     1
 73
     0
176
     1
 90
        0
176
     1
 40
-0.6
176
     1
 41
-30.0
176
     1
 62
     5
 63
     7
421
 16777215
176
     1
 74
     1
176
     1
 91
        4
176
     1
 64
     7
176
     1
 65
   257
176
     1
 75
     1
176
     1
175
     1
176
     1
 42
1.0
176
     1
 92
        8
176
     1
 66
     7
176
     1
 43
1.0
176
     1
 76
     1
176
     1
 77
     6
176
     1
 78
     2
176
     1
 67
     7
176
     1
 79
     5
176
     1
170
     0
176
     1
171
     0
176
     1
290
     0
176
     1
 93
        1
176
     1
 44
-50.0
176
     1
173
     0
176
     1
  0
VISUALSTYLE
  5
39
102
{ACAD_REACTORS
330
2A
102
}
330
2A
100
AcDbVisualStyle
  2
Facepattern
 70
    15
177
     2
291
     1
 71
     2
176
     1
 72
     2
176
     1
 73
     0
176
     1
 90
        0
176
     1
 40
-0.6
176
     1
 41
-30.0
176
     1
 62
     5
 63
     7
421
 16777215
176
     1
 74
     1
176
     1
 91
        4
176
     1
 64
     7
176
     1
 65
   257
176
     1
 75
     1
176
     1
175
     1
176
     1
 42
1.0
176
     1
 92
        8
176
     1
 66
     7
176
     1
 43
1.0
176
     1
 76
     1
176
     1
 77
     6
176
     1
 78
     2
176
     1
 67
     7
176
     1
 79
     5
176
     1
170
     0
176
     1
171
     0
176
     1
290
     0
176
     1
 93
        1
176
     1
 44
0.0
176
     1
173
     0
176
     1
  0
VISUALSTYLE
  5
2B
102
{ACAD_REACTORS
330
2A
102
}
330
2A
100
AcDbVisualStyle
  2
Flat
 70
     0
177
     2
291
     1
 71
     2
176
     1
 72
     1
176
     1
 73
     1
176
     1
 90
        2
176
     1
 40
-0.6
176
     1
 41
30.0
176
     1
 62
     5
 63
     7
421
 16777215
176
     1
 74
     0
176
     1
 91
        4
176
     1
 64
     7
176
     1
 65
   257
176
     1
 75
     1
176
     1
175
     1
176
     1
 42
1.0
176
     1
 92
        8
176
     1
 66
     7
176
     1
 43
1.0
176
     1
 76
     1
176
     1
 77
     6
176
     1
 78
     2
176
     1
 67
     7
176
     1
 79
     5
176
     1
170
     0
176
     1
171
     0
176
     1
290
     0
176
     1
 93
       13
176
     1
 44
0.0
176
     1
173
     0
176
     1
  0
VISUALSTYLE
  5
2C
102
{ACAD_REACTORS
330
2A
102
}
330
2A
100
AcDbVisualStyle
  2
FlatWithEdges
 70
     1
177
     2
291
     1
 71
     2
176
     1
 72
     1
176
     1
 73
     1
176
     1
 90
        2
176
     1
 40
-0.6
176
     1
 41
30.0
176
     1
 62
     5
 63
     7
421
 16777215
176
     1
 74
     1
176
     1
 91
        4
176
     1
 64
     7
176
     1
 65
   257
176
     1
 75
     1
176
     1
175
     1
176
     1
 42
1.0
176
     1
 92
        0
176
     1
 66
   257
176
     1
 43
1.0
176
     1
 76
     1
176
     1
 77
     6
176
     1
 78
     2
176
     1
 67
     7
176
     1
 79
     5
176
     1
170
     0
176
     1
171
     0
176
     1
290
     0
176
     1
 93
       13
176
     1
 44
0.0
176
     1
173
     0
176
     1
  0
VISUALSTYLE
  5
2D
102
{ACAD_REACTORS
330
2A
102
}
330
2A
100
AcDbVisualStyle
  2
Gouraud
 70
     2
177
     2
291
     1
 71
     2
176
     1
 72
     2
176
     1
 73
     1
176
     1
 90
        2
176
     1
 40
-0.6
176
     1
 41
30.0
176
     1
 62
     5
 63
     7
421
 16777215
176
     1
 74
     0
176
     1
 91
        4
176
     1
 64
     7
176
     1
 65
   257
176
     1
 75
     1
176
     1
175
     1
176
     1
 42
1.0
176
     1
 92
        0
176
     1
 66
     7
176
     1
 43
1.0
176
     1
 76
     1
176
     1
 77
     6
176
     1
 78
     2
176
     1
 67
     7
176
     1
 79
     5
176
     1
170
     0
176
     1
171
     0
176
     1
290
     0
176
     1
 93
       13
176
     1
 44
0.0
176
     1
173
     0
176
     1
  0
VISUALSTYLE
  5
2E
102
{ACAD_REACTORS
330
2A
102
}
330
2A
100
AcDbVisualStyle
  2
GouraudWithEdges
 70
     3
177
     2
291
     1
 71
     2
176
     1
 72
     2
176
     1
 73
     1
176
     1
 90
        2
176
     1
 40
-0.6
176
     1
 41
30.0
176
     1
 62
     5
 63
     7
421
 16777215
176
     1
 74
     1
176
     1
 91
        4
176
     1
 64
     7
176
     1
 65
   257
176
     1
 75
     1
176
     1
175
     1
176
     1
 42
1.0
176
     1
 92
        0
176
     1
 66
   257
176
     1
 43
1.0
176
     1
 76
     1
176
     1
 77
     6
176
     1
 78
     2
176
     1
 67
     7
176
     1
 79
     5
176
     1
170
     0
176
     1
171
     0
176
     1
290
     0
176
     1
 93
       13
176
     1
 44
0.0
176
     1
173
     0
176
     1
  0
VISUALSTYLE
  5
38
102
{ACAD_REACTORS
330
2A
102
}
330
2A
100
AcDbVisualStyle
  2
Linepattern
 70
    14
177
     2
291
     1
 71
     2
176
     1
 72
     2
176
     1
 73
     0
176
     1
 90
        0
176
     1
 40
-0.6
176
     1
 41
-30.0
176
     1
 62
     5
 63
     7
421
 16777215
176
     1
 74
     1
176
     1
 91
        4
176
     1
 64
     7
176
     1
 65
   257
176
     1
 75
     7
176
     1
175
     7
176
     1
 42
1.0
176
     1
 92
        8
176
     1
 66
     7
176
     1
 43
1.0
176
     1
 76
     1
176
     1
 77
     6
176
     1
 78
     2
176
     1
 67
     7
176
     1
 79
     5
176
     1
170
     0
176
     1
171
     0
176
     1
290
     0
176
     1
 93
        1
176
     1
 44
0.0
176
     1
173
     0
176
     1
  0
VISUALSTYLE
  5
33
102
{ACAD_REACTORS
330
2A
102
}
330
2A
100
AcDbVisualStyle
  2
Realistic
 70
     8
177
     2
291
     0
 71
     2
176
     1
 72
     2
176
     1
 73
     0
176
     1
 90
        0
176
     1
 40
-0.6
176
     1
 41
-30.0
176
     1
 62
     5
 63
     7
421
 16777215
176
     1
 74
     1
176
     1
 91
        0
176
     1
 64
     7
176
     1
 65
   257
176
     1
 75
     1
176
     1
175
     1
176
     1
 42
1.0
176
     1
 92
        8
176
     1
 66
     8
424
  7895160
176
     1
 43
1.0
176
     1
 76
     1
176
     1
 77
     6
176
     1
 78
     2
176
     1
 67
     7
176
     1
 79
     5
176
     1
170
     0
176
     1
171
     0
176
     1
290
     0
176
     1
 93
       13
176
     1
 44
0.0
176
     1
173
     0
176
     1
  0
VISUALSTYLE
  5
37
102
{ACAD_REACTORS
330
2A
102
}
330
2A
100
AcDbVisualStyle
  2
Thicken
 70
    13
177
     2
291
     1
 71
     2
176
     1
 72
     2
176
     1
 73
     0
176
     1
 90
        0
176
     1
 40
-0.6
176
     1
 41
-30.0
176
     1
 62
     5
 63
     7
421
 16777215
176
     1
 74
     1
176
     1
 91
        4
176
     1
 64
     7
176
     1
 65
   257
176
     1
 75
     1
176
     1
175
     1
176
     1
 42
1.0
176
     1
 92
       12
176
     1
 66
     7
176
     1
 43
1.0
176
     1
 76
     1
176
     1
 77
     6
176
     1
 78
     2
176
     1
 67
     7
176
     1
 79
     5
176
     1
170
     0
176
     1
171
     0
176
     1
290
     0
176
     1
 93
        1
176
     1
 44
0.0
176
     1
173
     0
176
     1
  0
ENDSEC
  0
EOF
