  0
SECTION
  2
HEADER
  9
$ACADVER
  1
AC1024
  9
$ACADMAINTVER
 70
     6
  9
$DWGCODEPAGE
  3
ANSI_1252
  9
$INSBASE
 10
0.0
 20
0.0
 30
0.0
  9
$EXTMIN
 10
1.000000000000000E+20
 20
1.000000000000000E+20
 30
1.000000000000000E+20
  9
$EXTMAX
 10
-1.000000000000000E+20
 20
-1.000000000000000E+20
 30
-1.000000000000000E+20
  9
$LIMMIN
 10
0.0
 20
0.0
  9
$LIMMAX
 10
12.0
 20
9.0
  9
$ORTHOMODE
 70
     0
  9
$REGENMODE
 70
     1
  9
$FILLMODE
 70
     1
  9
$QTEXTMODE
 70
     0
  9
$MIRRTEXT
 70
     1
  9
$LTSCALE
 40
1.0
  9
$ATTMODE
 70
     1
  9
$TEXTSIZE
 40
0.2
  9
$TRACEWID
 40
0.05
  9
$TEXTSTYLE
  7
Standard
  9
$CLAYER
  8
0
  9
$CELTYPE
  6
ByLayer
  9
$CECOLOR
 62
   256
  9
$CELTSCALE
 40
1.0
  9
$DISPSILH
 70
     0
  9
$DIMSCALE
 40
1.0
  9
$DIMASZ
 40
0.18
  9
$DIMEXO
 40
0.0625
  9
$DIMDLI
 40
0.38
  9
$DIMRND
 40
0.0
  9
$DIMDLE
 40
0.0
  9
$DIMEXE
 40
0.18
  9
$DIMTP
 40
0.0
  9
$DIMTM
 40
0.0
  9
$DIMTXT
 40
0.18
  9
$DIMCEN
 40
0.09
  9
$DIMTSZ
 40
0.0
  9
$DIMTOL
 70
     0
  9
$DIMLIM
 70
     0
  9
$DIMTIH
 70
     1
  9
$DIMTOH
 70
     1
  9
$DIMSE1
 70
     0
  9
$DIMSE2
 70
     0
  9
$DIMTAD
 70
     0
  9
$DIMZIN
 70
     0
  9
$DIMBLK
  1

  9
$DIMASO
 70
     1
  9
$DIMSHO
 70
     1
  9
$DIMPOST
  1

  9
$DIMAPOST
  1

  9
$DIMALT
 70
     0
  9
$DIMALTD
 70
     2
  9
$DIMALTF
 40
25.4
  9
$DIMLFAC
 40
1.0
  9
$DIMTOFL
 70
     0
  9
$DIMTVP
 40
0.0
  9
$DIMTIX
 70
     0
  9
$DIMSOXD
 70
     0
  9
$DIMSAH
 70
     0
  9
$DIMBLK1
  1

  9
$DIMBLK2
  1

  9
$DIMSTYLE
  2
Standard
  9
$DIMCLRD
 70
     0
  9
$DIMCLRE
 70
     0
  9
$DIMCLRT
 70
     0
  9
$DIMTFAC
 40
1.0
  9
$DIMGAP
 40
0.09
  9
$DIMJUST
 70
     0
  9
$DIMSD1
 70
     0
  9
$DIMSD2
 70
     0
  9
$DIMTOLJ
 70
     1
  9
$DIMTZIN
 70
     0
  9
$DIMALTZ
 70
     0
  9
$DIMALTTZ
 70
     0
  9
$DIMUPT
 70
     0
  9
$DIMDEC
 70
     4
  9
$DIMTDEC
 70
     4
  9
$DIMALTU
 70
     2
  9
$DIMALTTD
 70
     2
  9
$DIMTXSTY
  7
Standard
  9
$DIMAUNIT
 70
     0
  9
$DIMADEC
 70
     0
  9
$DIMALTRND
 40
0.0
  9
$DIMAZIN
 70
     0
  9
$DIMDSEP
 70
    46
  9
$DIMATFIT
 70
     3
  9
$DIMFRAC
 70
     0
  9
$DIMLDRBLK
  1

  9
$DIMLUNIT
 70
     2
  9
$DIMLWD
 70
    -2
  9
$DIMLWE
 70
    -2
  9
$DIMTMOVE
 70
     0
  9
$DIMFXL
 40
1.0
  9
$DIMFXLON
 70
     0
  9
$DIMJOGANG
 40
0.7853981633974483
  9
$DIMTFILL
 70
     0
  9
$DIMTFILLCLR
 70
     0
  9
$DIMARCSYM
 70
     0
  9
$DIMLTYPE
  6

  9
$DIMLTEX1
  6

  9
$DIMLTEX2
  6

  9
$DIMTXTDIRECTION
 70
     0
  9
$LUNITS
 70
     2
  9
$LUPREC
 70
     4
  9
$SKETCHINC
 40
0.1
  9
$FILLETRAD
 40
0.5
  9
$AUNITS
 70
     0
  9
$AUPREC
 70
     0
  9
$MENU
  1
.
  9
$ELEVATION
 40
0.0
  9
$PELEVATION
 40
0.0
  9
$THICKNESS
 40
0.0
  9
$LIMCHECK
 70
     0
  9
$CHAMFERA
 40
0.5
  9
$CHAMFERB
 40
0.5
  9
$CHAMFERC
 40
1.0
  9
$CHAMFERD
 40
0.0
  9
$SKPOLY
 70
     0
  9
$TDCREATE
 40
2458982.830098368
  9
$TDUCREATE
 40
2458983.038431701
  9
$TDUPDATE
 40
2458982.830103137
  9
$TDUUPDATE
 40
2458983.03843647
  9
$TDINDWG
 40
0.0000000116
  9
$TDUSRTIMER
 40
0.0000000116
  9
$USRTIMER
 70
     1
  9
$ANGBASE
 50
0.0
  9
$ANGDIR
 70
     0
  9
$PDMODE
 70
     0
  9
$PDSIZE
 40
0.0
  9
$PLINEWID
 40
0.0
  9
$SPLFRAME
 70
     0
  9
$SPLINETYPE
 70
     6
  9
$SPLINESEGS
 70
     8
  9
$HANDSEED
  5
59
  9
$SURFTAB1
 70
     6
  9
$SURFTAB2
 70
     6
  9
$SURFTYPE
 70
     6
  9
$SURFU
 70
     6
  9
$SURFV
 70
     6
  9
$UCSBASE
  2

  9
$UCSNAME
  2

  9
$UCSORG
 10
0.0
 20
0.0
 30
0.0
  9
$UCSXDIR
 10
1.0
 20
0.0
 30
0.0
  9
$UCSYDIR
 10
0.0
 20
1.0
 30
0.0
  9
$UCSORTHOREF
  2

  9
$UCSORTHOVIEW
 70
     0
  9
$UCSORGTOP
 10
0.0
 20
0.0
 30
0.0
  9
$UCSORGBOTTOM
 10
0.0
 20
0.0
 30
0.0
  9
$UCSORGLEFT
 10
0.0
 20
0.0
 30
0.0
  9
$UCSORGRIGHT
 10
0.0
 20
0.0
 30
0.0
  9
$UCSORGFRONT
 10
0.0
 20
0.0
 30
0.0
  9
$UCSORGBACK
 10
0.0
 20
0.0
 30
0.0
  9
$PUCSBASE
  2

  9
$PUCSNAME
  2

  9
$PUCSORG
 10
0.0
 20
0.0
 30
0.0
  9
$PUCSXDIR
 10
1.0
 20
0.0
 30
0.0
  9
$PUCSYDIR
 10
0.0
 20
1.0
 30
0.0
  9
$PUCSORTHOREF
  2

  9
$PUCSORTHOVIEW
 70
     0
  9
$PUCSORGTOP
 10
0.0
 20
0.0
 30
0.0
  9
$PUCSORGBOTTOM
 10
0.0
 20
0.0
 30
0.0
  9
$PUCSORGLEFT
 10
0.0
 20
0.0
 30
0.0
  9
$PUCSORGRIGHT
 10
0.0
 20
0.0
 30
0.0
  9
$PUCSORGFRONT
 10
0.0
 20
0.0
 30
0.0
  9
$PUCSORGBACK
 10
0.0
 20
0.0
 30
0.0
  9
$USERI1
 70
     0
  9
$USERI2
 70
     0
  9
$USERI3
 70
     0
  9
$USERI4
 70
     0
  9
$USERI5
 70
     0
  9
$USERR1
 40
0.0
  9
$USERR2
 40
0.0
  9
$USERR3
 40
0.0
  9
$USERR4
 40
0.0
  9
$USERR5
 40
0.0
  9
$WORLDVIEW
 70
     1
  9
$SHADEDGE
 70
     3
  9
$SHADEDIF
 70
    70
  9
$TILEMODE
 70
     1
  9
$MAXACTVP
 70
    64
  9
$PINSBASE
 10
0.0
 20
0.0
 30
0.0
  9
$PLIMCHECK
 70
     0
  9
$PEXTMIN
 10
1.000000000000000E+20
 20
1.000000000000000E+20
 30
1.000000000000000E+20
  9
$PEXTMAX
 10
-1.000000000000000E+20
 20
-1.000000000000000E+20
 30
-1.000000000000000E+20
  9
$PLIMMIN
 10
0.0
 20
0.0
  9
$PLIMMAX
 10
12.0
 20
9.0
  9
$UNITMODE
 70
     0
  9
$VISRETAIN
 70
     1
  9
$PLINEGEN
 70
     0
  9
$PSLTSCALE
 70
     1
  9
$TREEDEPTH
 70
  3020
  9
$CMLSTYLE
  2
Standard
  9
$CMLJUST
 70
     0
  9
$CMLSCALE
 40
1.0
  9
$PROXYGRAPHICS
 70
     1
  9
$MEASUREMENT
 70
     0
  9
$CELWEIGHT
370
    -1
  9
$ENDCAPS
280
     0
  9
$JOINSTYLE
280
     0
  9
$LWDISPLAY
290
     1
  9
$INSUNITS
 70
     1
  9
$HYPERLINKBASE
  1

  9
$STYLESHEET
  1

  9
$XEDIT
290
     1
  9
$CEPSNTYPE
380
     0
  9
$PSTYLEMODE
290
     1
  9
$FINGERPRINTGUID
  2
{2C5082A8-414C-43C9-928C-79FDA7A21AC0}
  9
$VERSIONGUID
  2
{FAEB1C32-E019-11D5-929B-00C0DF256EC4}
  9
$EXTNAMES
290
     1
  9
$PSVPSCALE
 40
0.0
  9
$OLESTARTUP
290
     0
  9
$SORTENTS
280
   127
  9
$INDEXCTL
280
     0
  9
$HIDETEXT
280
     1
  9
$XCLIPFRAME
280
     2
  9
$HALOGAP
280
     0
  9
$OBSCOLOR
 70
   257
  9
$OBSLTYPE
280
     0
  9
$INTERSECTIONDISPLAY
280
     0
  9
$INTERSECTIONCOLOR
 70
   257
  9
$DIMASSOC
280
     2
  9
$PROJECTNAME
  1

  9
$CAMERADISPLAY
290
     0
  9
$LENSLENGTH
 40
50.0
  9
$CAMERAHEIGHT
 40
0.0
  9
$STEPSPERSEC
 40
2.0
  9
$STEPSIZE
 40
6.0
  9
$3DDWFPREC
 40
2.0
  9
$PSOLWIDTH
 40
0.25
  9
$PSOLHEIGHT
 40
4.0
  9
$LOFTANG1
 40
1.570796326794897
  9
$LOFTANG2
 40
1.570796326794897
  9
$LOFTMAG1
 40
0.0
  9
$LOFTMAG2
 40
0.0
  9
$LOFTPARAM
 70
     7
  9
$LOFTNORMALS
280
     1
  9
$LATITUDE
 40
37.795
  9
$LONGITUDE
 40
-122.394
  9
$NORTHDIRECTION
 40
0.0
  9
$TIMEZONE
 70
 -8000
  9
$LIGHTGLYPHDISPLAY
280
     1
  9
$TILEMODELIGHTSYNCH
280
     1
  9
$CMATERIAL
347
3C
  9
$SOLIDHIST
280
     1
  9
$SHOWHIST
280
     1
  9
$DWFFRAME
280
     2
  9
$DGNFRAME
280
     2
  9
$REALWORLDSCALE
290
     1
  9
$INTERFERECOLOR
 62
   256
  9
$CSHADOW
280
     0
  9
$SHADOWPLANELOCATION
 40
0.0
  0
ENDSEC
  0
SECTION
  2
CLASSES
  0
CLASS
  1
ACDBDICTIONARYWDFLT
  2
AcDbDictionaryWithDefault
  3
ObjectDBX Classes
 90
        0
 91
        4
280
     0
281
     0
  0
CLASS
  1
VISUALSTYLE
  2
AcDbVisualStyle
  3
ObjectDBX Classes
 90
     4095
 91
        4
280
     0
281
     0
  0
CLASS
  1
MATERIAL
  2
AcDbMaterial
  3
ObjectDBX Classes
 90
     1153
 91
        4
280
     0
281
     0
  0
CLASS
  1
SUN
  2
AcDbSun
  3
SCENEOE
 90
     1024
 91
        4
280
     0
281
     0
  0
CLASS
  1
IMAGEDEF
  2
AcDbRasterImageDef
  3
ISM
 90
        0
 91
        4
280
     0
281
     0
  0
CLASS
  1
RASTERVARIABLES
  2
AcDbRasterVariables
  3
ISM
 90
        0
 91
        4
280
     0
281
     0
  0
CLASS
  1
IMAGE
  2
AcDbRasterImage
  3
ISM
 90
      127
 91
        5
280
     0
281
     1
  0
CLASS
  1
IMAGEDEF_REACTOR
  2
AcDbRasterImageDefReactor
  3
ISM
 90
        1
 91
        4
280
     0
281
     0
  0
ENDSEC
  0
SECTION
  2
TABLES
  0
TABLE
  2
VPORT
  5
8
330
0
100
AcDbSymbolTable
 70
     1
  0
VPORT
  5
29
330
8
100
AcDbSymbolTableRecord
100
AcDbViewportTableRecord
  2
*Active
 70
     0
 10
0.0
 20
0.0
 11
1.0
 21
1.0
 12
0.0
 22
0.0
 13
0.0
 23
0.0
 14
0.5
 24
0.5
 15
0.5
 25
0.5
 16
0.0
 26
0.0
 36
1.0
 17
14.00000962612962
 27
-19.80000555060554
 37
0.0
 40
39.60001110121108
 41
0.7070709950231031
 42
50.0
 43
0.0
 44
0.0
 50
0.0
 51
0.0
 71
     0
 72
   100
 73
     1
 74
     3
 75
     0
 76
     0
 77
     0
 78
     0
281
     0
 65
     1
110
0.0
120
0.0
130
0.0
111
1.0
121
0.0
131
0.0
112
0.0
122
1.0
132
0.0
 79
     0
146
0.0
 60
     3
 61
     5
292
     1
282
     1
141
0.0
142
0.0
 63
   250
361
3F
  0
ENDTAB
  0
TABLE
  2
LTYPE
  5
5
330
0
100
AcDbSymbolTable
 70
     1
  0
LTYPE
  5
14
330
5
100
AcDbSymbolTableRecord
100
AcDbLinetypeTableRecord
  2
ByBlock
 70
     0
  3

 72
    65
 73
     0
 40
0.0
  0
LTYPE
  5
15
330
5
100
AcDbSymbolTableRecord
100
AcDbLinetypeTableRecord
  2
ByLayer
 70
     0
  3

 72
    65
 73
     0
 40
0.0
  0
LTYPE
  5
16
330
5
100
AcDbSymbolTableRecord
100
AcDbLinetypeTableRecord
  2
Continuous
 70
     0
  3
Solid line
 72
    65
 73
     0
 40
0.0
  0
ENDTAB
  0
TABLE
  2
LAYER
  5
2
330
0
100
AcDbSymbolTable
 70
     3
  0
LAYER
  5
10
330
2
100
AcDbSymbolTableRecord
100
AcDbLayerTableRecord
  2
0
 70
     0
 62
     7
  6
Continuous
370
    -3
390
F
347
3E
  0
LAYER
  5
40
330
2
100
AcDbSymbolTableRecord
100
AcDbLayerTableRecord
  2
Image
 70
     1
 62
     7
  6
Continuous
370
    -3
390
F
347
3E
  0
LAYER
  5
46
330
2
100
AcDbSymbolTableRecord
100
AcDbLayerTableRecord
  2
Path
 70
     0
 62
     7
  6
Continuous
370
    -3
390
F
347
3E
  0
ENDTAB
  0
TABLE
  2
STYLE
  5
3
330
0
100
AcDbSymbolTable
 70
     1
  0
STYLE
  5
11
330
3
100
AcDbSymbolTableRecord
100
AcDbTextStyleTableRecord
  2
Standard
 70
     0
 40
0.0
 41
1.0
 50
0.0
 71
     0
 42
0.2
  3
txt
  4

  0
ENDTAB
  0
TABLE
  2
VIEW
  5
6
330
0
100
AcDbSymbolTable
 70
     0
  0
ENDTAB
  0
TABLE
  2
UCS
  5
7
330
0
100
AcDbSymbolTable
 70
     0
  0
ENDTAB
  0
TABLE
  2
APPID
  5
9
330
0
100
AcDbSymbolTable
 70
     1
  0
APPID
  5
12
330
9
100
AcDbSymbolTableRecord
100
AcDbRegAppTableRecord
  2
ACAD
 70
     0
  0
ENDTAB
  0
TABLE
  2
DIMSTYLE
  5
A
330
0
100
AcDbSymbolTable
 70
     1
100
AcDbDimStyleTable
  0
DIMSTYLE
105
27
330
A
100
AcDbSymbolTableRecord
100
AcDbDimStyleTableRecord
  2
Standard
 70
     0
178
     0
340
11
  0
ENDTAB
  0
TABLE
  2
BLOCK_RECORD
  5
1
330
0
100
AcDbSymbolTable
 70
     1
  0
BLOCK_RECORD
  5
1F
330
1
100
AcDbSymbolTableRecord
100
AcDbBlockTableRecord
  2
*Model_Space
340
22
 70
     0
280
     1
281
     0
  0
BLOCK_RECORD
  5
1B
330
1
100
AcDbSymbolTableRecord
100
AcDbBlockTableRecord
  2
*Paper_Space
340
1E
 70
     0
280
     1
281
     0
  0
BLOCK_RECORD
  5
23
330
1
100
AcDbSymbolTableRecord
100
AcDbBlockTableRecord
  2
*Paper_Space0
340
26
 70
     0
280
     1
281
     0
  0
ENDTAB
  0
ENDSEC
  0
SECTION
  2
BLOCKS
  0
BLOCK
  5
20
330
1F
100
AcDbEntity
  8
0
100
AcDbBlockBegin
  2
*Model_Space
 70
     0
 10
0.0
 20
0.0
 30
0.0
  3
*Model_Space
  1

  0
ENDBLK
  5
21
330
1F
100
AcDbEntity
  8
0
100
AcDbBlockEnd
  0
BLOCK
  5
1C
330
1B
100
AcDbEntity
 67
     1
  8
0
100
AcDbBlockBegin
  2
*Paper_Space
 70
     0
 10
0.0
 20
0.0
 30
0.0
  3
*Paper_Space
  1

  0
ENDBLK
  5
1D
330
1B
100
AcDbEntity
 67
     1
  8
0
100
AcDbBlockEnd
  0
BLOCK
  5
24
330
23
100
AcDbEntity
  8
0
100
AcDbBlockBegin
  2
*Paper_Space0
 70
     0
 10
0.0
 20
0.0
 30
0.0
  3
*Paper_Space0
  1

  0
ENDBLK
  5
25
330
23
100
AcDbEntity
  8
0
100
AcDbBlockEnd
  0
ENDSEC
  0
SECTION
  2
ENTITIES
  0
IMAGE
  5
44
330
1F
100
AcDbEntity
  8
Image
160
                 8
310
0800000000000000
100
AcDbRasterImage
 90
        0
 10
2.662152230502898
 20
-23.33246771647858
 30
0.0
 11
0.0578462112021775
 21
0.0
 31
0.0
 12
0.0
 22
0.0578462112021775
 32
0.0
 13
392.0
 23
272.0
340
42
 70
     3
280
     0
281
    50
282
    50
283
     0
360
45
 71
     1
 91
        2
 14
-0.5
 24
-0.5
 14
391.5
 24
271.5
290
     0
  0
SPLINE
  5
47
330
1F
100
AcDbEntity
  8
Path
 62
   250
420
  2301728
370
    35
100
AcDbSpline
210
0.0
220
0.0
230
1.0
 70
     8
 71
     3
 72
    35
 73
    31
 74
     0
 42
0.0000000001
 43
0.0000000001
 12
1.0
 22
0.0
 32
0.0
 13
1.0
 23
0.0
 33
0.0
 40
0.0
 40
0.0
 40
0.0
 40
0.0
 40
1.0
 40
1.0
 40
1.0
 40
2.0
 40
2.0
 40
2.0
 40
3.0
 40
3.0
 40
3.0
 40
4.0
 40
4.0
 40
4.0
 40
5.0
 40
5.0
 40
5.0
 40
6.0
 40
6.0
 40
6.0
 40
7.0
 40
7.0
 40
7.0
 40
8.0
 40
8.0
 40
8.0
 40
9.0
 40
9.0
 40
9.0
 40
10.0
 40
10.0
 40
10.0
 40
10.0
 10
13.37125916492098
 20
-20.3203730269037
 30
0.0
 10
14.01703703353278
 20
-20.36703703194528
 30
0.0
 10
14.62851851486139
 20
-19.99074073574306
 30
0.0
 10
15.14592592213944
 20
-19.56740740251556
 30
0.0
 10
15.89851851454389
 20
-18.90888888416167
 30
0.0
 10
16.60407406992305
 20
-18.25037036580778
 30
0.0
 10
17.07444444017583
 20
-17.3566666623275
 30
0.0
 10
17.26259258827695
 20
-16.98037036612528
 30
0.0
 10
17.45074073637806
 20
-16.55703703289778
 30
0.0
 10
17.49777777340333
 20
-16.13370369967028
 30
0.0
 10
17.54481481042861
 20
-15.56925925536694
 30
0.0
 10
17.45074073637806
 20
-15.05185184808889
 30
0.0
 10
17.49777777340333
 20
-14.48740740378556
 30
0.0
 10
17.59185184745389
 20
-13.9699999965075
 30
0.0
 10
17.96814814365611
 20
-13.49962962625472
 30
0.0
 10
18.53259258795945
 20
-13.49962962625472
 30
0.0
 10
19.00296295821222
 20
-13.49962962625472
 30
0.0
 10
19.33222221738917
 20
-13.87592592245694
 30
0.0
 10
19.52037036549028
 20
-14.29925925568444
 30
0.0
 10
19.80259258764194
 20
-15.00481481106361
 30
0.0
 10
19.84962962466722
 20
-15.71037036644278
 30
0.0
 10
19.75555555061667
 20
-16.46296295884722
 30
0.0
 10
19.70851851359139
 20
-16.83925925504944
 30
0.0
 10
19.473333328465
 20
-17.07444444017583
 30
0.0
 10
19.19111110631333
 20
-17.26259258827695
 30
0.0
 10
18.72074073606056
 20
-17.49777777340333
 30
0.0
 10
18.2033333287825
 20
-17.30962962530222
 30
0.0
 10
17.92111110663083
 20
-16.88629629207472
 30
0.0
 10
17.68592592150445
 20
-16.5099999958725
 30
0.0
 10
17.63888888447917
 20
-16.086666662645
 30
0.0
 10
17.6262783995467
 20
-15.68265457326394
 30
0.0
  0
SPLINE
  5
48
330
1F
100
AcDbEntity
  8
Path
 62
   250
420
  2301728
370
    35
100
AcDbSpline
210
0.0
220
0.0
230
1.0
 70
     8
 71
     3
 72
   125
 73
   121
 74
     0
 42
0.0000000001
 43
0.0000000001
 12
1.0
 22
0.0
 32
0.0
 13
1.0
 23
0.0
 33
0.0
 40
0.0
 40
0.0
 40
0.0
 40
0.0
 40
1.0
 40
1.0
 40
1.0
 40
2.0
 40
2.0
 40
2.0
 40
3.0
 40
3.0
 40
3.0
 40
4.0
 40
4.0
 40
4.0
 40
5.0
 40
5.0
 40
5.0
 40
6.0
 40
6.0
 40
6.0
 40
7.0
 40
7.0
 40
7.0
 40
8.0
 40
8.0
 40
8.0
 40
9.0
 40
9.0
 40
9.0
 40
10.0
 40
10.0
 40
10.0
 40
11.0
 40
11.0
 40
11.0
 40
12.0
 40
12.0
 40
12.0
 40
13.0
 40
13.0
 40
13.0
 40
14.0
 40
14.0
 40
14.0
 40
15.0
 40
15.0
 40
15.0
 40
16.0
 40
16.0
 40
16.0
 40
17.0
 40
17.0
 40
17.0
 40
18.0
 40
18.0
 40
18.0
 40
19.0
 40
19.0
 40
19.0
 40
20.0
 40
20.0
 40
20.0
 40
21.0
 40
21.0
 40
21.0
 40
22.0
 40
22.0
 40
22.0
 40
23.0
 40
23.0
 40
23.0
 40
24.0
 40
24.0
 40
24.0
 40
25.0
 40
25.0
 40
25.0
 40
26.0
 40
26.0
 40
26.0
 40
27.0
 40
27.0
 40
27.0
 40
28.0
 40
28.0
 40
28.0
 40
29.0
 40
29.0
 40
29.0
 40
30.0
 40
30.0
 40
30.0
 40
31.0
 40
31.0
 40
31.0
 40
32.0
 40
32.0
 40
32.0
 40
33.0
 40
33.0
 40
33.0
 40
34.0
 40
34.0
 40
34.0
 40
35.0
 40
35.0
 40
35.0
 40
36.0
 40
36.0
 40
36.0
 40
37.0
 40
37.0
 40
37.0
 40
38.0
 40
38.0
 40
38.0
 40
39.0
 40
39.0
 40
39.0
 40
40.0
 40
40.0
 40
40.0
 40
40.0
 10
8.845660183425883
 20
-18.66908583562859
 30
0.0
 10
8.842962960752223
 20
-18.06222221770667
 30
0.0
 10
8.842962960752223
 20
-17.30962962530222
 30
0.0
 10
8.325555553474166
 20
-16.83925925504944
 30
0.0
 10
8.184444442398334
 20
-16.9333333291
 30
0.0
 10
8.278518516448889
 20
-17.12148147720111
 30
0.0
 10
8.325555553474166
 20
-17.21555555125166
 30
0.0
 10
8.325555553474166
 20
-17.63888888447917
 30
0.0
 10
8.466666664549999
 20
-18.06222221770667
 30
0.0
 10
8.278518516448889
 20
-18.48555555093417
 30
0.0
 10
8.23148147942361
 20
-18.53259258795945
 30
0.0
 10
8.137407405373056
 20
-18.53259258795945
 30
0.0
 10
8.137407405373056
 20
-18.53259258795945
 30
0.0
 10
8.137407405373056
 20
-18.29740740283306
 30
0.0
 10
8.137407405373056
 20
-18.06222221770667
 30
0.0
 10
8.0433333313225
 20
-17.87407406960556
 30
0.0
 10
7.808148146196111
 20
-17.45074073637806
 30
0.0
 10
7.619999998095
 20
-17.02740740315055
 30
0.0
 10
7.243703701892778
 20
-16.69814814397361
 30
0.0
 10
7.290740738918055
 20
-17.30962962530222
 30
0.0
 10
7.714074072145555
 20
-17.92111110663083
 30
0.0
 10
7.431851849993889
 20
-18.48555555093417
 30
0.0
 10
7.1966666648675
 20
-18.01518518068139
 30
0.0
 10
7.055555553791667
 20
-17.49777777340333
 30
0.0
 10
6.585185183538889
 20
-17.12148147720111
 30
0.0
 10
6.444074072463056
 20
-17.02740740315055
 30
0.0
 10
6.208888887336666
 20
-16.79222221802416
 30
0.0
 10
6.020740739235555
 20
-16.9333333291
 30
0.0
 10
6.208888887336666
 20
-17.45074073637806
 30
0.0
 10
6.585185183538889
 20
-17.87407406960556
 30
0.0
 10
6.820370368665277
 20
-18.34444443985833
 30
0.0
 10
6.867407405690555
 20
-18.43851851390889
 30
0.0
 10
6.867407405690555
 20
-18.57962962498472
 30
0.0
 10
6.820370368665277
 20
-18.67370369903528
 30
0.0
 10
6.585185183538889
 20
-18.90888888416167
 30
0.0
 10
6.3499999984125
 20
-19.23814814333861
 30
0.0
 10
6.585185183538889
 20
-19.52037036549028
 30
0.0
 10
6.726296294614722
 20
-19.61444443954083
 30
0.0
 10
6.914444442715833
 20
-19.66148147656611
 30
0.0
 10
6.961481479741111
 20
-19.75555555061667
 30
0.0
 10
7.1966666648675
 20
-20.08481480979361
 30
0.0
 10
6.867407405690555
 20
-20.50814814302111
 30
0.0
 10
6.632222220564167
 20
-20.79037036517278
 30
0.0
 10
6.538148146513611
 20
-20.88444443922333
 30
0.0
 10
6.397037035437777
 20
-20.79037036517278
 30
0.0
 10
6.302962961387222
 20
-20.83740740219805
 30
0.0
 10
6.161851850311389
 20
-20.97851851327389
 30
0.0
 10
6.020740739235555
 20
-21.21370369840028
 30
0.0
 10
6.067777776260833
 20
-21.44888888352667
 30
0.0
 10
6.067777776260833
 20
-21.5899999946025
 30
0.0
 10
6.208888887336666
 20
-21.68407406865305
 30
0.0
 10
6.302962961387222
 20
-21.77814814270361
 30
0.0
 10
6.491111109488333
 20
-21.91925925377944
 30
0.0
 10
6.77333333164
 20
-21.96629629080472
 30
0.0
 10
6.961481479741111
 20
-21.77814814270361
 30
0.0
 10
7.102592590816944
 20
-21.5899999946025
 30
0.0
 10
6.961481479741111
 20
-21.30777777245083
 30
0.0
 10
7.008518516766388
 20
-21.07259258732444
 30
0.0
 10
7.102592590816944
 20
-20.64925925409694
 30
0.0
 10
7.478888887019166
 20
-20.46111110599583
 30
0.0
 10
7.808148146196111
 20
-20.22592592086944
 30
0.0
 10
7.902222220246666
 20
-20.13185184681889
 30
0.0
 10
7.949259257271944
 20
-19.99074073574306
 30
0.0
 10
7.949259257271944
 20
-19.80259258764194
 30
0.0
 10
7.949259257271944
 20
-19.61444443954083
 30
0.0
 10
8.090370368347777
 20
-19.42629629143972
 30
0.0
 10
8.278518516448889
 20
-19.52037036549028
 30
0.0
 10
8.419629627524722
 20
-19.61444443954083
 30
0.0
 10
8.513703701575277
 20
-19.75555555061667
 30
0.0
 10
8.607777775625832
 20
-19.8966666616925
 30
0.0
 10
8.842962960752223
 20
-20.22592592086944
 30
0.0
 10
8.795925923726944
 20
-20.60222221707167
 30
0.0
 10
8.65481481265111
 20
-20.93148147624861
 30
0.0
 10
8.513703701575277
 20
-21.26074073542555
 30
0.0
 10
8.184444442398334
 20
-21.44888888352667
 30
0.0
 10
7.902222220246666
 20
-21.68407406865305
 30
0.0
 10
7.714074072145555
 20
-21.82518517972889
 30
0.0
 10
7.714074072145555
 20
-22.10740740188055
 30
0.0
 10
7.808148146196111
 20
-22.34259258700694
 30
0.0
 10
7.902222220246666
 20
-22.48370369808278
 30
0.0
 10
8.137407405373056
 20
-22.62481480915861
 30
0.0
 10
8.325555553474166
 20
-22.38962962403222
 30
0.0
 10
8.419629627524722
 20
-22.20148147593111
 30
0.0
 10
8.466666664549999
 20
-22.01333332783
 30
0.0
 10
8.466666664549999
 20
-21.77814814270361
 30
0.0
 10
8.607777775625832
 20
-21.26074073542555
 30
0.0
 10
9.078148145878611
 20
-20.97851851327389
 30
0.0
 10
9.454444442080833
 20
-20.64925925409694
 30
0.0
 10
9.830740738283055
 20
-20.22592592086944
 30
0.0
 10
9.783703701257778
 20
-19.56740740251556
 30
0.0
 10
9.407407405055555
 20
-19.19111110631333
 30
0.0
 10
9.266296293979723
 20
-19.0499999952375
 30
0.0
 10
8.984074071828056
 20
-19.0499999952375
 30
0.0
 10
8.842962960752223
 20
-18.90888888416167
 30
0.0
 10
8.795925923726944
 20
-18.86185184713639
 30
0.0
 10
8.8899999977775
 20
-18.76777777308583
 30
0.0
 10
8.937037034802778
 20
-18.72074073606056
 30
0.0
 10
9.407407405055555
 20
-18.43851851390889
 30
0.0
 10
9.689629627207221
 20
-18.01518518068139
 30
0.0
 10
9.877777775308333
 20
-17.54481481042861
 30
0.0
 10
10.30111110853583
 20
-16.41592592182194
 30
0.0
 10
9.971851849358888
 20
-15.23999999619
 30
0.0
 10
9.830740738283055
 20
-14.06407407055806
 30
0.0
 10
9.783703701257778
 20
-13.54666666328
 30
0.0
 10
9.783703701257778
 20
-12.98222221897667
 30
0.0
 10
10.01888888638417
 20
-12.51185184872389
 30
0.0
 10
10.20703703448528
 20
-12.18259258954694
 30
0.0
 10
10.39518518258639
 20
-11.85333333037
 30
0.0
 10
10.77148147878861
 20
-11.71222221929417
 30
0.0
 10
11.19481481201611
 20
-11.57111110821833
 30
0.0
 10
11.61814814524361
 20
-11.57111110821833
 30
0.0
 10
11.99444444144583
 20
-11.85333333037
 30
0.0
 10
12.79407407087555
 20
-12.55888888574917
 30
0.0
 10
12.55888888574917
 20
-13.82888888543167
 30
0.0
 10
11.90037036739528
 20
-14.58148147783611
 30
0.0
 10
11.006666663915
 20
-15.52222221834167
 30
0.0
 10
10.15999999746
 20
-16.69814814397361
 30
0.0
 10
10.25407407151055
 20
-18.06222221770667
 30
0.0
 10
10.39518518258639
 20
-19.37925925441444
 30
0.0
 10
11.47703703416778
 20
-20.50814814302111
 30
0.0
 10
12.83710263492125
 20
-20.34922857932932
 30
0.0
  0
SPLINE
  5
49
330
1F
100
AcDbEntity
  8
Path
 62
   250
420
  2301728
370
    35
100
AcDbSpline
210
0.0
220
0.0
230
1.0
 70
     8
 71
     3
 72
    29
 73
    25
 74
     0
 42
0.0000000001
 43
0.0000000001
 12
1.0
 22
0.0
 32
0.0
 13
1.0
 23
0.0
 33
0.0
 40
0.0
 40
0.0
 40
0.0
 40
0.0
 40
1.0
 40
1.0
 40
1.0
 40
2.0
 40
2.0
 40
2.0
 40
3.0
 40
3.0
 40
3.0
 40
4.0
 40
4.0
 40
4.0
 40
5.0
 40
5.0
 40
5.0
 40
6.0
 40
6.0
 40
6.0
 40
7.0
 40
7.0
 40
7.0
 40
8.0
 40
8.0
 40
8.0
 40
8.0
 10
13.66010544805071
 20
-16.87909633207647
 30
0.0
 10
13.35851851517889
 20
-16.65111110694833
 30
0.0
 10
13.26444444112833
 20
-16.22777777372083
 30
0.0
 10
13.31148147815361
 20
-15.89851851454389
 30
0.0
 10
13.54666666328
 20
-15.05185184808889
 30
0.0
 10
14.06407407055806
 20
-14.29925925568444
 30
0.0
 10
14.393333329735
 20
-13.49962962625472
 30
0.0
 10
14.72259258891194
 20
-12.60592592277444
 30
0.0
 10
14.62851851486139
 20
-11.66518518226889
 30
0.0
 10
14.20518518163389
 20
-10.81851851581389
 30
0.0
 10
13.45259258922944
 20
-9.313333331005
 30
0.0
 10
11.66518518226889
 20
-8.513703701575277
 30
0.0
 10
10.06592592340944
 20
-9.031111108853333
 30
0.0
 10
8.513703701575277
 20
-9.501481479106111
 30
0.0
 10
7.431851849993889
 20
-11.05370370094028
 30
0.0
 10
7.619999998095
 20
-12.65296295979972
 30
0.0
 10
7.714074072145555
 20
-13.31148147815361
 30
0.0
 10
8.0433333313225
 20
-13.92296295948222
 30
0.0
 10
8.184444442398334
 20
-14.58148147783611
 30
0.0
 10
8.325555553474166
 20
-15.28703703321528
 30
0.0
 10
8.23148147942361
 20
-15.94555555156917
 30
0.0
 10
7.996296294297222
 20
-16.55703703289778
 30
0.0
 10
7.902222220246666
 20
-16.69814814397361
 30
0.0
 10
7.808148146196111
 20
-16.79222221802416
 30
0.0
 10
7.765099524923236
 20
-16.97592475749285
 30
0.0
  0
SPLINE
  5
4A
330
1F
100
AcDbEntity
  8
Path
 62
   250
420
  2301728
370
    35
100
AcDbSpline
210
0.0
220
0.0
230
1.0
 70
     8
 71
     3
 72
    44
 73
    40
 74
     0
 42
0.0000000001
 43
0.0000000001
 12
1.0
 22
0.0
 32
0.0
 13
1.0
 23
0.0
 33
0.0
 40
0.0
 40
0.0
 40
0.0
 40
0.0
 40
1.0
 40
1.0
 40
1.0
 40
2.0
 40
2.0
 40
2.0
 40
3.0
 40
3.0
 40
3.0
 40
4.0
 40
4.0
 40
4.0
 40
5.0
 40
5.0
 40
5.0
 40
6.0
 40
6.0
 40
6.0
 40
7.0
 40
7.0
 40
7.0
 40
8.0
 40
8.0
 40
8.0
 40
9.0
 40
9.0
 40
9.0
 40
10.0
 40
10.0
 40
10.0
 40
11.0
 40
11.0
 40
11.0
 40
12.0
 40
12.0
 40
12.0
 40
13.0
 40
13.0
 40
13.0
 40
13.0
 10
16.5287011225316
 20
-18.42234379060564
 30
0.0
 10
16.74518518099889
 20
-18.81481481011111
 30
0.0
 10
16.88629629207472
 20
-19.33222221738917
 30
0.0
 10
17.30962962530222
 20
-19.56740740251556
 30
0.0
 10
17.73296295852972
 20
-19.75555555061667
 30
0.0
 10
18.2033333287825
 20
-19.52037036549028
 30
0.0
 10
18.67370369903528
 20
-19.56740740251556
 30
0.0
 10
18.81481481011111
 20
-19.56740740251556
 30
0.0
 10
18.90888888416167
 20
-19.52037036549028
 30
0.0
 10
19.0499999952375
 20
-19.473333328465
 30
0.0
 10
19.56740740251556
 20
-19.19111110631333
 30
0.0
 10
19.8966666616925
 20
-18.76777777308583
 30
0.0
 10
20.27296295789472
 20
-18.34444443985833
 30
0.0
 10
20.79037036517278
 20
-17.68592592150445
 30
0.0
 10
21.21370369840028
 20
-17.02740740315055
 30
0.0
 10
21.35481480947611
 20
-16.22777777372083
 30
0.0
 10
21.35481480947611
 20
-16.03962962561972
 30
0.0
 10
21.40185184650139
 20
-15.80444444049333
 30
0.0
 10
21.44888888352667
 20
-15.61629629239222
 30
0.0
 10
21.49592592055194
 20
-14.86370369998778
 30
0.0
 10
21.44888888352667
 20
-14.11111110758333
 30
0.0
 10
21.166666661375
 20
-13.40555555220417
 30
0.0
 10
20.97851851327389
 20
-12.98222221897667
 30
0.0
 10
20.69629629112222
 20
-12.65296295979972
 30
0.0
 10
20.36703703194528
 20
-12.37074073764806
 30
0.0
 10
20.03777777276833
 20
-12.08851851549639
 30
0.0
 10
19.66148147656611
 20
-11.90037036739528
 30
0.0
 10
19.23814814333861
 20
-11.75925925631944
 30
0.0
 10
18.34444443985833
 20
-11.52407407119306
 30
0.0
 10
17.3566666623275
 20
-11.33592592309194
 30
0.0
 10
16.46296295884722
 20
-11.71222221929417
 30
0.0
 10
15.80444444049333
 20
-11.99444444144583
 30
0.0
 10
15.28703703321528
 20
-12.55888888574917
 30
0.0
 10
15.05185184808889
 20
-13.21740740410305
 30
0.0
 10
14.76962962593722
 20
-14.15814814460861
 30
0.0
 10
14.86370369998778
 20
-15.09888888511417
 30
0.0
 10
14.8166666629625
 20
-16.03962962561972
 30
0.0
 10
14.76962962593722
 20
-16.41592592182194
 30
0.0
 10
14.44037036676028
 20
-16.65111110694833
 30
0.0
 10
14.16462800154109
 20
-16.81842494926853
 30
0.0
  0
SPLINE
  5
4B
330
1F
100
AcDbEntity
  8
Path
 62
   250
420
  2301728
370
    35
100
AcDbSpline
210
0.0
220
0.0
230
1.0
 70
     8
 71
     3
 72
    41
 73
    37
 74
     0
 42
0.0000000001
 43
0.0000000001
 12
1.0
 22
0.0
 32
0.0
 13
1.0
 23
0.0
 33
0.0
 40
0.0
 40
0.0
 40
0.0
 40
0.0
 40
1.0
 40
1.0
 40
1.0
 40
2.0
 40
2.0
 40
2.0
 40
3.0
 40
3.0
 40
3.0
 40
4.0
 40
4.0
 40
4.0
 40
5.0
 40
5.0
 40
5.0
 40
6.0
 40
6.0
 40
6.0
 40
7.0
 40
7.0
 40
7.0
 40
8.0
 40
8.0
 40
8.0
 40
9.0
 40
9.0
 40
9.0
 40
10.0
 40
10.0
 40
10.0
 40
11.0
 40
11.0
 40
11.0
 40
12.0
 40
12.0
 40
12.0
 40
12.0
 10
15.2525315310176
 20
-12.4297638360491
 30
0.0
 10
15.25696996236776
 20
-12.26865251022494
 30
0.0
 10
15.25483687407981
 20
-12.13749341873212
 30
0.0
 10
15.25214826414486
 20
-12.04850086052231
 30
0.0
 10
15.24250486769907
 20
-11.7293235297373
 30
0.0
 10
15.21486084734284
 20
-11.59349561613374
 30
0.0
 10
15.30533336115486
 20
-11.48561891056718
 30
0.0
 10
15.35724807920467
 20
-11.42371700425127
 30
0.0
 10
15.42683900800672
 20
-11.39631701149192
 30
0.0
 10
15.47518518131639
 20
-11.38296296011722
 30
0.0
 10
15.89851851454389
 20
-11.33592592309194
 30
0.0
 10
16.18074073669555
 20
-11.75925925631944
 30
0.0
 10
16.60407406992305
 20
-11.57111110821833
 30
0.0
 10
16.79222221802416
 20
-11.47703703416778
 30
0.0
 10
16.79222221802416
 20
-11.24185184904139
 30
0.0
 10
16.74518518099889
 20
-11.10074073796556
 30
0.0
 10
16.69814814397361
 20
-10.95962962688972
 30
0.0
 10
16.55703703289778
 20
-10.86555555283917
 30
0.0
 10
16.60407406992305
 20
-10.67740740473806
 30
0.0
 10
16.63779294198494
 20
-10.67867419505711
 30
0.0
 10
17.00237160716796
 20
-10.68616010045527
 30
0.0
 10
17.22263809338676
 20
-10.38991849286331
 30
0.0
 10
17.38341352240111
 20
-10.17368851018806
 30
0.0
 10
17.36320516646721
 20
-9.935646048993592
 30
0.0
 10
17.3566666623275
 20
-9.877777775308333
 30
0.0
 10
17.49777777340333
 20
-9.642592590181945
 30
0.0
 10
17.87407406960556
 20
-9.830740738283055
 30
0.0
 10
18.06222221770667
 20
-9.689629627207221
 30
0.0
 10
18.15629629175722
 20
-9.548518516131388
 30
0.0
 10
18.15629629175722
 20
-9.360370368030278
 30
0.0
 10
18.15629629175722
 20
-9.172222219929166
 30
0.0
 10
18.17159395116818
 20
-9.063088772238713
 30
0.0
 10
18.21610889120697
 20
-9.021350004978459
 30
0.0
 10
18.24010541671818
 20
-9.004543680836248
 30
0.0
 10
18.36155651622486
 20
-8.919486426490108
 30
0.0
 10
18.62021715617032
 20
-9.008921105287193
 30
0.0
 10
18.85713063086514
 20
-9.265388367773713
 30
0.0
  0
SPLINE
  5
4C
330
1F
100
AcDbEntity
  8
Path
 62
   250
420
  2301728
370
    35
100
AcDbSpline
210
0.0
220
0.0
230
1.0
 70
     8
 71
     3
 72
    92
 73
    88
 74
     0
 42
0.0000000001
 43
0.0000000001
 12
1.0
 22
0.0
 32
0.0
 13
1.0
 23
0.0
 33
0.0
 40
0.0
 40
0.0
 40
0.0
 40
0.0
 40
1.0
 40
1.0
 40
1.0
 40
2.0
 40
2.0
 40
2.0
 40
3.0
 40
3.0
 40
3.0
 40
4.0
 40
4.0
 40
4.0
 40
5.0
 40
5.0
 40
5.0
 40
6.0
 40
6.0
 40
6.0
 40
7.0
 40
7.0
 40
7.0
 40
8.0
 40
8.0
 40
8.0
 40
9.0
 40
9.0
 40
9.0
 40
10.0
 40
10.0
 40
10.0
 40
11.0
 40
11.0
 40
11.0
 40
12.0
 40
12.0
 40
12.0
 40
13.0
 40
13.0
 40
13.0
 40
14.0
 40
14.0
 40
14.0
 40
15.0
 40
15.0
 40
15.0
 40
16.0
 40
16.0
 40
16.0
 40
17.0
 40
17.0
 40
17.0
 40
18.0
 40
18.0
 40
18.0
 40
19.0
 40
19.0
 40
19.0
 40
20.0
 40
20.0
 40
20.0
 40
21.0
 40
21.0
 40
21.0
 40
22.0
 40
22.0
 40
22.0
 40
23.0
 40
23.0
 40
23.0
 40
24.0
 40
24.0
 40
24.0
 40
25.0
 40
25.0
 40
25.0
 40
26.0
 40
26.0
 40
26.0
 40
27.0
 40
27.0
 40
27.0
 40
28.0
 40
28.0
 40
28.0
 40
29.0
 40
29.0
 40
29.0
 40
29.0
 10
7.705541001265527
 20
-16.68664008959642
 30
0.0
 10
7.855185183221389
 20
-16.46296295884722
 30
0.0
 10
7.667037035120278
 20
-16.22777777372083
 30
0.0
 10
7.525925924044444
 20
-16.03962962561972
 30
0.0
 10
7.572962961069722
 20
-15.71037036644278
 30
0.0
 10
7.714074072145555
 20
-15.47518518131639
 30
0.0
 10
7.949259257271944
 20
-15.19296295916472
 30
0.0
 10
8.372592590499444
 20
-14.53444444081083
 30
0.0
 10
7.525925924044444
 20
-14.20518518163389
 30
0.0
 10
7.243703701892778
 20
-13.78185184840639
 30
0.0
 10
7.290740738918055
 20
-13.64074073733055
 30
0.0
 10
7.337777775943334
 20
-13.45259258922944
 30
0.0
 10
7.431851849993889
 20
-13.31148147815361
 30
0.0
 10
7.667037035120278
 20
-12.74703703385028
 30
0.0
 10
7.478888887019166
 20
-12.08851851549639
 30
0.0
 10
7.008518516766388
 20
-11.61814814524361
 30
0.0
 10
6.914444442715833
 20
-11.47703703416778
 30
0.0
 10
6.914444442715833
 20
-11.14777777499083
 30
0.0
 10
7.055555553791667
 20
-11.10074073796556
 30
0.0
 10
7.714074072145555
 20
-10.77148147878861
 30
0.0
 10
8.278518516448889
 20
-10.30111110853583
 30
0.0
 10
8.607777775625832
 20
-9.689629627207221
 30
0.0
 10
8.795925923726944
 20
-9.360370368030278
 30
0.0
 10
8.842962960752223
 20
-8.984074071828056
 30
0.0
 10
8.748888886701666
 20
-8.607777775625832
 30
0.0
 10
8.748888886701666
 20
-8.560740738600556
 30
0.0
 10
8.795925923726944
 20
-8.560740738600556
 30
0.0
 10
8.795925923726944
 20
-8.513703701575277
 30
0.0
 10
8.842962960752223
 20
-8.466666664549999
 30
0.0
 10
8.937037034802778
 20
-8.419629627524722
 30
0.0
 10
9.031111108853333
 20
-8.466666664549999
 30
0.0
 10
9.313333331005
 20
-8.65481481265111
 30
0.0
 10
9.595555553156666
 20
-8.70185184967639
 30
0.0
 10
9.924814812333612
 20
-8.795925923726944
 30
0.0
 10
10.15999999746
 20
-8.795925923726944
 30
0.0
 10
10.39518518258639
 20
-8.842962960752223
 30
0.0
 10
10.5833333306875
 20
-8.748888886701666
 30
0.0
 10
10.77148147878861
 20
-8.607777775625832
 30
0.0
 10
10.91259258986444
 20
-8.419629627524722
 30
0.0
 10
11.14777777499083
 20
-8.278518516448889
 30
0.0
 10
11.4299999971425
 20
-8.137407405373056
 30
0.0
 10
11.75925925631944
 20
-8.372592590499444
 30
0.0
 10
11.94740740442056
 20
-8.560740738600556
 30
0.0
 10
12.18259258954694
 20
-8.842962960752223
 30
0.0
 10
12.41777777467333
 20
-9.078148145878611
 30
0.0
 10
12.74703703385028
 20
-9.219259256954444
 30
0.0
 10
13.17037036707778
 20
-9.360370368030278
 30
0.0
 10
13.59370370030528
 20
-9.548518516131388
 30
0.0
 10
14.11111110758333
 20
-9.454444442080833
 30
0.0
 10
14.15814814460861
 20
-9.454444442080833
 30
0.0
 10
14.20518518163389
 20
-9.548518516131388
 30
0.0
 10
14.20518518163389
 20
-9.595555553156666
 30
0.0
 10
14.15814814460861
 20
-9.877777775308333
 30
0.0
 10
14.11111110758333
 20
-10.15999999746
 30
0.0
 10
14.25222221865917
 20
-10.44222221961167
 30
0.0
 10
14.44037036676028
 20
-10.72444444176333
 30
0.0
 10
14.72259258891194
 20
-10.86555555283917
 30
0.0
 10
15.05185184808889
 20
-11.006666663915
 30
0.0
 10
15.14592592213944
 20
-11.05370370094028
 30
0.0
 10
15.23999999619
 20
-11.19481481201611
 30
0.0
 10
15.19296295916472
 20
-11.33592592309194
 30
0.0
 10
15.05185184808889
 20
-11.57111110821833
 30
0.0
 10
14.8166666629625
 20
-11.75925925631944
 30
0.0
 10
14.8166666629625
 20
-12.04148147847111
 30
0.0
 10
14.8166666629625
 20
-12.22962962657222
 30
0.0
 10
14.95777777403833
 20
-12.41777777467333
 30
0.0
 10
15.00481481106361
 20
-12.65296295979972
 30
0.0
 10
15.00481481106361
 20
-12.699999996825
 30
0.0
 10
15.00481481106361
 20
-12.79407407087555
 30
0.0
 10
14.95777777403833
 20
-12.84111110790083
 30
0.0
 10
14.8166666629625
 20
-13.02925925600194
 30
0.0
 10
14.62851851486139
 20
-13.17037036707778
 30
0.0
 10
14.58148147783611
 20
-13.45259258922944
 30
0.0
 10
14.53444444081083
 20
-13.68777777435583
 30
0.0
 10
14.72259258891194
 20
-13.9699999965075
 30
0.0
 10
14.58148147783611
 20
-14.20518518163389
 30
0.0
 10
14.34629629270972
 20
-14.53444444081083
 30
0.0
 10
13.92296295948222
 20
-14.72259258891194
 30
0.0
 10
13.9699999965075
 20
-15.19296295916472
 30
0.0
 10
13.9699999965075
 20
-15.42814814429111
 30
0.0
 10
14.25222221865917
 20
-15.56925925536694
 30
0.0
 10
14.25222221865917
 20
-15.80444444049333
 30
0.0
 10
14.20518518163389
 20
-16.03962962561972
 30
0.0
 10
13.92296295948222
 20
-16.13370369967028
 30
0.0
 10
13.78185184840639
 20
-16.32185184777139
 30
0.0
 10
13.73481481138111
 20
-16.41592592182194
 30
0.0
 10
13.78185184840639
 20
-16.5099999958725
 30
0.0
 10
13.85150951266005
 20
-16.58676805304271
 30
0.0
  0
SPLINE
  5
4D
330
1F
100
AcDbEntity
  8
Path
 62
   250
420
  2301728
370
    35
100
AcDbSpline
210
0.0
220
0.0
230
1.0
 70
     8
 71
     3
 72
    44
 73
    40
 74
     0
 42
0.0000000001
 43
0.0000000001
 12
1.0
 22
0.0
 32
0.0
 13
1.0
 23
0.0
 33
0.0
 40
0.0
 40
0.0
 40
0.0
 40
0.0
 40
1.0
 40
1.0
 40
1.0
 40
2.0
 40
2.0
 40
2.0
 40
3.0
 40
3.0
 40
3.0
 40
4.0
 40
4.0
 40
4.0
 40
5.0
 40
5.0
 40
5.0
 40
6.0
 40
6.0
 40
6.0
 40
7.0
 40
7.0
 40
7.0
 40
8.0
 40
8.0
 40
8.0
 40
9.0
 40
9.0
 40
9.0
 40
10.0
 40
10.0
 40
10.0
 40
11.0
 40
11.0
 40
11.0
 40
12.0
 40
12.0
 40
12.0
 40
13.0
 40
13.0
 40
13.0
 40
13.0
 10
16.89456021486997
 20
-11.4540044176642
 30
0.0
 10
16.90207626485362
 20
-11.36728849338756
 30
0.0
 10
16.91932040321375
 20
-11.24515268115319
 30
0.0
 10
16.96262668891979
 20
-11.10516194383829
 30
0.0
 10
17.13392257827222
 20
-10.55142959330941
 30
0.0
 10
17.55154997210228
 20
-10.24017095804289
 30
0.0
 10
17.6518036861795
 20
-10.16924361928386
 30
0.0
 10
18.05150940620399
 20
-9.886460133659389
 30
0.0
 10
18.64828176526704
 20
-9.715342958635256
 30
0.0
 10
18.698330389929
 20
-9.701284098142532
 30
0.0
 10
18.72840320260233
 20
-9.692836436921409
 30
0.0
 10
18.78378024161482
 20
-9.677875392048485
 30
0.0
 10
18.85148067426934
 20
-9.641725574484823
 30
0.0
 10
19.04191263358588
 20
-9.540040710324769
 30
0.0
 10
19.22701330763899
 20
-9.325615096409916
 30
0.0
 10
19.25988095402473
 20
-9.071666342268758
 30
0.0
 10
19.27558484761166
 20
-8.950334385647615
 30
0.0
 10
19.23764429812389
 20
-8.965948563206284
 30
0.0
 10
19.22584771699982
 20
-8.620723439639885
 30
0.0
 10
19.21719047913668
 20
-8.367363940372352
 30
0.0
 10
19.23561886906986
 20
-8.300272141253563
 30
0.0
 10
19.27689829026541
 20
-8.280389633934314
 30
0.0
 10
19.34093543805394
 20
-8.249545263417938
 30
0.0
 10
19.44378589285317
 20
-8.340110364171121
 30
0.0
 10
19.47258976202277
 20
-8.36547344422482
 30
0.0
 10
19.77392508683531
 20
-8.630814698498764
 30
0.0
 10
19.93427992710917
 20
-9.377118556186174
 30
0.0
 10
19.60212822318107
 20
-9.856023432775432
 30
0.0
 10
19.50380519803203
 20
-9.997787676537012
 30
0.0
 10
19.34592221376884
 20
-10.10882597493952
 30
0.0
 10
19.03015624524246
 20
-10.33090257174453
 30
0.0
 10
18.91969787124664
 20
-10.40858660402401
 30
0.0
 10
18.78815264196818
 20
-10.49391803055252
 30
0.0
 10
18.48562158193097
 20
-10.70526961447501
 30
0.0
 10
18.2842442671665
 20
-10.84595367725632
 30
0.0
 10
18.18027272087811
 20
-10.92149959715027
 30
0.0
 10
18.0942372029598
 20
-11.06262075642127
 30
0.0
 10
18.01623737026084
 20
-11.19056083682005
 30
0.0
 10
17.98722966627504
 20
-11.31621782373164
 30
0.0
 10
17.97512015564439
 20
-11.40295456212684
 30
0.0
  0
SPLINE
  5
4E
330
1F
100
AcDbEntity
  8
Path
 62
   250
420
  2301728
370
    35
100
AcDbSpline
210
0.0
220
0.0
230
1.0
 70
     8
 71
     3
 72
    59
 73
    55
 74
     0
 42
0.0000000001
 43
0.0000000001
 12
1.0
 22
0.0
 32
0.0
 13
1.0
 23
0.0
 33
0.0
 40
0.0
 40
0.0
 40
0.0
 40
0.0
 40
1.0
 40
1.0
 40
1.0
 40
2.0
 40
2.0
 40
2.0
 40
3.0
 40
3.0
 40
3.0
 40
4.0
 40
4.0
 40
4.0
 40
5.0
 40
5.0
 40
5.0
 40
6.0
 40
6.0
 40
6.0
 40
7.0
 40
7.0
 40
7.0
 40
8.0
 40
8.0
 40
8.0
 40
9.0
 40
9.0
 40
9.0
 40
10.0
 40
10.0
 40
10.0
 40
11.0
 40
11.0
 40
11.0
 40
12.0
 40
12.0
 40
12.0
 40
13.0
 40
13.0
 40
13.0
 40
14.0
 40
14.0
 40
14.0
 40
15.0
 40
15.0
 40
15.0
 40
16.0
 40
16.0
 40
16.0
 40
17.0
 40
17.0
 40
17.0
 40
18.0
 40
18.0
 40
18.0
 40
18.0
 10
18.33247129759064
 20
-11.32637941995667
 30
0.0
 10
18.39379686814099
 20
-11.24191931549464
 30
0.0
 10
18.52093811702413
 20
-11.09399983446608
 30
0.0
 10
18.71534629071324
 20
-11.03709546978847
 30
0.0
 10
18.84203106444458
 20
-11.00001404098734
 30
0.0
 10
18.90379875558221
 20
-11.02894423032472
 30
0.0
 10
18.91954714831916
 20
-11.03709546978847
 30
0.0
 10
18.96323813635439
 20
-11.05970965073623
 30
0.0
 10
18.97418779817167
 20
-11.09576257498937
 30
0.0
 10
19.03015624524246
 20
-11.18173708600846
 30
0.0
 10
19.03015911615536
 20
-11.18174067464959
 30
0.0
 10
19.03071033143301
 20
-11.18258902941283
 30
0.0
 10
19.15645918755753
 20
-11.35333657440053
 30
0.0
 10
19.34348337325657
 20
-11.60728748172636
 30
0.0
 10
20.3826691527096
 20
-11.7695478904405
 30
0.0
 10
20.52762585162084
 20
-11.49654632280946
 30
0.0
 10
20.53847072511712
 20
-11.47612193067951
 30
0.0
 10
20.5535186151054
 20
-11.4359083358997
 30
0.0
 10
20.58718437527855
 20
-11.42847984875963
 30
0.0
 10
20.67887559161847
 20
-11.40824780779428
 30
0.0
 10
20.80232915287595
 20
-11.65418671493223
 30
0.0
 10
20.81690908406082
 20
-11.6837298441747
 30
0.0
 10
20.91373636358667
 20
-11.87992372569032
 30
0.0
 10
20.9267200671967
 20
-12.05622505169153
 30
0.0
 10
20.92751818098412
 20
-12.06660627275375
 30
0.0
 10
20.97866062346266
 20
-12.73183411456516
 30
0.0
 10
21.93346022446093
 20
-13.62468946328219
 30
0.0
 10
22.22078692975658
 20
-13.7938005879144
 30
0.0
 10
22.23699466855823
 20
-13.80334063149563
 30
0.0
 10
22.28130433832435
 20
-13.82833192832822
 30
0.0
 10
22.30587074004708
 20
-13.8788843982049
 30
0.0
 10
22.36852841418507
 20
-14.00782283856619
 30
0.0
 10
22.23896411481063
 20
-14.17180220638182
 30
0.0
 10
22.14421250531464
 20
-14.35535258746657
 30
0.0
 10
22.0530323114717
 20
-14.53198550390824
 30
0.0
 10
22.02386670727615
 20
-14.67163532031574
 30
0.0
 10
21.96553693434151
 20
-14.95093638858721
 30
0.0
 10
21.93875275240015
 20
-15.07918437439499
 30
0.0
 10
21.87725062070618
 20
-15.42746917338923
 30
0.0
 10
21.94851959810083
 20
-15.86133014423707
 30
0.0
 10
21.99881225035967
 20
-16.16749434455477
 30
0.0
 10
22.05286292761034
 20
-16.49653397889453
 30
0.0
 10
22.22929631560515
 20
-16.62708156593872
 30
0.0
 10
22.24700410639933
 20
-16.64018441243428
 30
0.0
 10
22.29604791154476
 20
-16.67356164586054
 30
0.0
 10
22.30587074004708
 20
-16.72918127701345
 30
0.0
 10
22.32574607008407
 20
-16.84172824014721
 30
0.0
 10
22.17001052867335
 20
-16.96033426496565
 30
0.0
 10
22.12719516907396
 20
-16.99294065827708
 30
0.0
 10
22.0573013589605
 20
-17.0461702544371
 30
0.0
 10
22.0104150448627
 20
-17.06183539069982
 30
0.0
 10
21.96553693434151
 20
-17.0865324189597
 30
0.0
 10
21.87432516045662
 20
-17.13672889563625
 30
0.0
 10
21.75982310563499
 20
-17.24162487587984
 30
0.0
 10
21.67625226644509
 20
-17.48642474832298
 30
0.0
  0
SPLINE
  5
4F
330
1F
100
AcDbEntity
  8
Path
 62
   250
420
  2301728
370
    35
100
AcDbSpline
210
0.0
220
0.0
230
1.0
 70
     8
 71
     3
 72
    17
 73
    13
 74
     0
 42
0.0000000001
 43
0.0000000001
 12
1.0
 22
0.0
 32
0.0
 13
1.0
 23
0.0
 33
0.0
 40
0.0
 40
0.0
 40
0.0
 40
0.0
 40
1.0
 40
1.0
 40
1.0
 40
2.0
 40
2.0
 40
2.0
 40
3.0
 40
3.0
 40
3.0
 40
4.0
 40
4.0
 40
4.0
 40
4.0
 10
6.386746965860272
 20
-21.07694919765683
 30
0.0
 10
6.36734103008315
 20
-21.09308947000523
 30
0.0
 10
6.328342549190122
 20
-21.13059076981862
 30
0.0
 10
6.318679774082223
 20
-21.18755829458014
 30
0.0
 10
6.301887804504534
 20
-21.2865617260875
 30
0.0
 10
6.381697030061477
 20
-21.39719522577049
 30
0.0
 10
6.488846676935007
 20
-21.4172830033624
 30
0.0
 10
6.57417738573529
 20
-21.43328116552203
 30
0.0
 10
6.660457648978693
 20
-21.38878058004777
 30
0.0
 10
6.701555484933046
 20
-21.32369124267978
 30
0.0
 10
6.762409508038854
 20
-21.22731326102346
 30
0.0
 10
6.73103330090694
 20
-21.07497688049153
 30
0.0
 10
6.607963724250425
 20
-20.98335743697421
 30
0.0
  0
SPLINE
  5
50
330
1F
100
AcDbEntity
  8
Path
 62
   250
420
  2301728
370
    35
100
AcDbSpline
210
0.0
220
0.0
230
1.0
 70
     8
 71
     3
 72
    20
 73
    16
 74
     0
 42
0.0000000001
 43
0.0000000001
 12
1.0
 22
0.0
 32
0.0
 13
1.0
 23
0.0
 33
0.0
 40
0.0
 40
0.0
 40
0.0
 40
0.0
 40
1.0
 40
1.0
 40
1.0
 40
2.0
 40
2.0
 40
2.0
 40
3.0
 40
3.0
 40
3.0
 40
4.0
 40
4.0
 40
4.0
 40
5.0
 40
5.0
 40
5.0
 40
5.0
 10
7.365207195559957
 20
-19.40080402030533
 30
0.0
 10
7.345048362873663
 20
-19.41152975091607
 30
0.0
 10
7.308571261238901
 20
-19.4344812641301
 30
0.0
 10
7.280123385269451
 20
-19.47737988020372
 30
0.0
 10
7.262508181416433
 20
-19.5039444373079
 30
0.0
 10
7.236009655309053
 20
-19.54390323856744
 30
0.0
 10
7.246090148244539
 20
-19.58798754167057
 30
0.0
 10
7.258649674472953
 20
-19.64291241190061
 30
0.0
 10
7.321819806564365
 20
-19.67724422386758
 30
0.0
 10
7.373715145952072
 20
-19.68157930235319
 30
0.0
 10
7.449720411910718
 20
-19.68792832624121
 30
0.0
 10
7.51760171207821
 20
-19.63127947281209
 30
0.0
 10
7.543882766533083
 20
-19.57947959127845
 30
0.0
 10
7.594344084925054
 20
-19.48002112007574
 30
0.0
 10
7.532414187208332
 20
-19.31768247898496
 30
0.0
 10
7.373715145952072
 20
-19.1966031626994
 30
0.0
  0
SPLINE
  5
51
330
1F
100
AcDbEntity
  8
Path
 62
   250
420
  2301728
370
    35
100
AcDbSpline
210
0.0
220
0.0
230
1.0
 70
     8
 71
     3
 72
    53
 73
    49
 74
     0
 42
0.0000000001
 43
0.0000000001
 12
1.0
 22
0.0
 32
0.0
 13
1.0
 23
0.0
 33
0.0
 40
0.0
 40
0.0
 40
0.0
 40
0.0
 40
1.0
 40
1.0
 40
1.0
 40
2.0
 40
2.0
 40
2.0
 40
3.0
 40
3.0
 40
3.0
 40
4.0
 40
4.0
 40
4.0
 40
5.0
 40
5.0
 40
5.0
 40
6.0
 40
6.0
 40
6.0
 40
7.0
 40
7.0
 40
7.0
 40
8.0
 40
8.0
 40
8.0
 40
9.0
 40
9.0
 40
9.0
 40
10.0
 40
10.0
 40
10.0
 40
11.0
 40
11.0
 40
11.0
 40
12.0
 40
12.0
 40
12.0
 40
13.0
 40
13.0
 40
13.0
 40
14.0
 40
14.0
 40
14.0
 40
15.0
 40
15.0
 40
15.0
 40
16.0
 40
16.0
 40
16.0
 40
16.0
 10
7.152498387561919
 20
-21.27264066941419
 30
0.0
 10
7.18018547161171
 20
-21.353166905469
 30
0.0
 10
7.25818171566954
 20
-21.54117581429425
 30
0.0
 10
7.441782337730121
 20
-21.62148386096833
 30
0.0
 10
7.551279673631205
 20
-21.66937930095201
 30
0.0
 10
7.690473732615142
 20
-21.67552736093673
 30
0.0
 10
7.705541001265527
 20
-21.63849976175256
 30
0.0
 10
7.718834763469235
 20
-21.60583020835722
 30
0.0
 10
7.625117400347048
 20
-21.56506755148446
 30
0.0
 10
7.526866148020627
 20
-21.4428082899952
 30
0.0
 10
7.406956728743602
 20
-21.29359833361612
 30
0.0
 10
7.352926147883267
 20
-21.11338108241335
 30
0.0
 10
7.382223814072413
 20
-21.09396653389751
 30
0.0
 10
7.406449294887754
 20
-21.0779138243927
 30
0.0
 10
7.464182635666506
 20
-21.18735158885102
 30
0.0
 10
7.611949240582907
 20
-21.25562476862996
 30
0.0
 10
7.782867604888412
 20
-21.3345949698906
 30
0.0
 10
7.983171915954872
 20
-21.31641347846719
 30
0.0
 10
7.99482495143373
 20
-21.27264066941419
 30
0.0
 10
7.999900007720439
 20
-21.25357780772914
 30
0.0
 10
7.9675713752325
 20
-21.23575661587523
 30
0.0
 10
7.8416746670934
 20
-21.14501567170666
 30
0.0
 10
7.658920246611384
 20
-21.01329531674103
 30
0.0
 10
7.567750100963603
 20
-20.946961438629
 30
0.0
 10
7.577916003557995
 20
-20.9237989133165
 30
0.0
 10
7.586693102034895
 20
-20.90380013402463
 30
0.0
 10
7.666134133011852
 20
-20.91870304291124
 30
0.0
 10
7.824658048580945
 20
-20.9493241999493
 30
0.0
 10
7.988370421496469
 20
-20.98094730559099
 30
0.0
 10
8.060134631367127
 20
-21.00431223026325
 30
0.0
 10
8.071400093603895
 20
-20.98335743697421
 30
0.0
 10
8.089626801905544
 20
-20.94945339103
 30
0.0
 10
7.912094571996586
 20
-20.86908649064138
 30
0.0
 10
7.90123319075111
 20
-20.71959805571058
 30
0.0
 10
7.900743700100914
 20
-20.71285858766756
 30
0.0
 10
7.894943020577624
 20
-20.61876585268313
 30
0.0
 10
7.943775095896362
 20
-20.59197305800305
 30
0.0
 10
8.034275601109197
 20
-20.54231918386543
 30
0.0
 10
8.222163213864237
 20
-20.77335015801919
 30
0.0
 10
8.258583614969135
 20
-20.74512334234338
 30
0.0
 10
8.306695808877102
 20
-20.70783592554136
 30
0.0
 10
8.006714119498973
 20
-20.28303412036327
 30
0.0
 10
8.06289214321178
 20
-20.2346219160568
 30
0.0
 10
8.108751388218037
 20
-20.19510236447162
 30
0.0
 10
8.352354807708279
 20
-20.44051804773275
 30
0.0
 10
8.394717280797009
 20
-20.40478953663781
 30
0.0
 10
8.41672139275259
 20
-20.38623195562393
 30
0.0
 10
8.388831191614814
 20
-20.2881098943782
 30
0.0
 10
8.130958617261603
 20
-19.90279606074334
 30
0.0
  0
SPLINE
  5
52
330
1F
100
AcDbEntity
  8
Path
 62
   250
420
  2301728
370
    35
100
AcDbSpline
210
0.0
220
0.0
230
1.0
 70
     8
 71
     3
 72
    17
 73
    13
 74
     0
 42
0.0000000001
 43
0.0000000001
 12
1.0
 22
0.0
 32
0.0
 13
1.0
 23
0.0
 33
0.0
 40
0.0
 40
0.0
 40
0.0
 40
0.0
 40
1.0
 40
1.0
 40
1.0
 40
2.0
 40
2.0
 40
2.0
 40
3.0
 40
3.0
 40
3.0
 40
4.0
 40
4.0
 40
4.0
 40
4.0
 10
7.350308593042703
 20
-21.84443608620917
 30
0.0
 10
7.285715205878947
 20
-21.88807970418148
 30
0.0
 10
7.188752993446591
 20
-21.96327609042932
 30
0.0
 10
7.101866249852137
 20
-22.07980213884854
 30
0.0
 10
6.744599082108338
 20
-22.55894171256773
 30
0.0
 10
7.067456205508527
 20
-23.04774334366659
 30
0.0
 10
6.801119462184992
 20
-23.36124416191143
 30
0.0
 10
6.534827935739702
 20
-23.67469186826752
 30
0.0
 10
6.053008364824277
 20
-23.37244215769494
 30
0.0
 10
5.650437473721215
 20
-23.68814209522452
 30
0.0
 10
5.351524840535853
 20
-23.92255213386673
 30
0.0
 10
5.289588483265096
 20
-24.34607351188946
 30
0.0
 10
5.284311386482742
 20
-24.66883876607671
 30
0.0
  0
POLYLINE
  5
53
330
1F
100
AcDbEntity
  8
Path
 62
   250
420
  2301728
370
    35
100
AcDb2dPolyline
 66
     1
 10
0.0
 20
0.0
 30
0.0
  0
VERTEX
  5
54
330
53
100
AcDbEntity
  8
Path
 62
   250
420
  2301728
370
    35
100
AcDbVertex
100
AcDb2dVertex
 10
3.087554863051896
 20
-10.69066528053046
 30
0.0
  0
VERTEX
  5
56
330
53
100
AcDbEntity
  8
0
100
AcDbVertex
100
AcDb2dVertex
 10
3.087554863051896
 20
-10.69066528053046
 30
0.0
  0
SEQEND
  5
55
330
53
100
AcDbEntity
  8
Path
 62
   250
420
  2301728
370
    35
  0
ENDSEC
  0
SECTION
  2
OBJECTS
  0
DICTIONARY
  5
C
330
0
100
AcDbDictionary
281
     1
  3
ACAD_GROUP
350
D
  3
ACAD_IMAGE_DICT
350
41
  3
ACAD_IMAGE_VARS
350
43
  3
ACAD_LAYOUT
350
1A
  3
ACAD_MATERIAL
350
3B
  3
ACAD_MLEADERSTYLE
350
58
  3
ACAD_MLINESTYLE
350
17
  3
ACAD_PLOTSETTINGS
350
19
  3
ACAD_PLOTSTYLENAME
350
E
  3
ACAD_TABLESTYLE
350
57
  3
ACAD_VISUALSTYLE
350
2A
  0
SUN
  5
3F
330
29
100
AcDbSun
 90
        1
290
     0
 63
     7
421
 16777215
 40
1.0
291
     1
 91
  2455826
 92
 54000000
292
     0
 70
     2
 71
   256
280
     1
  0
IMAGEDEF_REACTOR
  5
45
330
44
100
AcDbRasterImageDefReactor
 90
        2
330
44
  0
DICTIONARY
  5
D
102
{ACAD_REACTORS
330
C
102
}
330
C
100
AcDbDictionary
281
     1
  0
DICTIONARY
  5
41
102
{ACAD_REACTORS
330
C
102
}
330
C
100
AcDbDictionary
281
     1
  3
C:\Users\mlgcu\Documents\NoodleSign_1.png
350
42
  0
RASTERVARIABLES
  5
43
102
{ACAD_REACTORS
330
C
102
}
330
C
100
AcDbRasterVariables
 90
        0
 70
     0
 71
     1
 72
     0
  0
DICTIONARY
  5
1A
102
{ACAD_REACTORS
330
C
102
}
330
C
100
AcDbDictionary
281
     1
  3
Layout1
350
1E
  3
Layout2
350
26
  3
Model
350
22
  0
DICTIONARY
  5
3B
102
{ACAD_REACTORS
330
C
102
}
330
C
100
AcDbDictionary
281
     1
  3
ByBlock
350
3D
  3
ByLayer
350
3C
  3
Global
350
3E
  0
DICTIONARY
  5
58
102
{ACAD_REACTORS
330
C
102
}
330
C
100
AcDbDictionary
281
     1
  0
DICTIONARY
  5
17
102
{ACAD_REACTORS
330
C
102
}
330
C
100
AcDbDictionary
281
     1
  3
Standard
350
18
  0
DICTIONARY
  5
19
102
{ACAD_REACTORS
330
C
102
}
330
C
100
AcDbDictionary
281
     1
  0
ACDBDICTIONARYWDFLT
  5
E
102
{ACAD_REACTORS
330
C
102
}
330
C
100
AcDbDictionary
281
     1
  3
Normal
350
F
100
AcDbDictionaryWithDefault
340
F
  0
DICTIONARY
  5
57
102
{ACAD_REACTORS
330
C
102
}
330
C
100
AcDbDictionary
281
     1
  0
DICTIONARY
  5
2A
102
{ACAD_REACTORS
330
C
102
}
330
C
100
AcDbDictionary
281
     1
  3
2dWireframe
350
2F
  3
3D Hidden
350
31
  3
3dWireframe
350
30
  3
Basic
350
32
  3
Brighten
350
36
  3
ColorChange
350
3A
  3
Conceptual
350
34
  3
Dim
350
35
  3
Facepattern
350
39
  3
Flat
350
2B
  3
FlatWithEdges
350
2C
  3
Gouraud
350
2D
  3
GouraudWithEdges
350
2E
  3
Linepattern
350
38
  3
Realistic
350
33
  3
Thicken
350
37
  0
IMAGEDEF
  5
42
102
{ACAD_REACTORS
330
41
330
45
102
}
330
41
100
AcDbRasterImageDef
 90
        0
  1
C:\Users\mlgcu\Documents\NoodleSign_1.png
 10
392.0
 20
272.0
 11
0.3527777777777777
 21
0.3527777777777777
280
     1
281
     5
  0
LAYOUT
  5
1E
102
{ACAD_REACTORS
330
1A
102
}
330
1A
100
AcDbPlotSettings
  1

  2
none_device
  4

  6

 40
0.0
 41
0.0
 42
0.0
 43
0.0
 44
0.0
 45
0.0
 46
0.0
 47
0.0
 48
0.0
 49
0.0
140
0.0
141
0.0
142
1.0
143
1.0
 70
   688
 72
     0
 73
     0
 74
     5
  7

 75
    16
 76
     0
 77
     2
 78
   300
147
1.0
148
0.0
149
0.0
100
AcDbLayout
  1
Layout1
 70
     1
 71
     1
 10
0.0
 20
0.0
 11
12.0
 21
9.0
 12
0.0
 22
0.0
 32
0.0
 14
1.000000000000000E+20
 24
1.000000000000000E+20
 34
1.000000000000000E+20
 15
-1.000000000000000E+20
 25
-1.000000000000000E+20
 35
-1.000000000000000E+20
146
0.0
 13
0.0
 23
0.0
 33
0.0
 16
1.0
 26
0.0
 36
0.0
 17
0.0
 27
1.0
 37
0.0
 76
     0
330
1B
  0
LAYOUT
  5
26
102
{ACAD_REACTORS
330
1A
102
}
330
1A
100
AcDbPlotSettings
  1

  2
none_device
  4

  6

 40
0.0
 41
0.0
 42
0.0
 43
0.0
 44
0.0
 45
0.0
 46
0.0
 47
0.0
 48
0.0
 49
0.0
140
0.0
141
0.0
142
1.0
143
1.0
 70
   688
 72
     0
 73
     0
 74
     5
  7

 75
    16
 76
     0
 77
     2
 78
   300
147
1.0
148
0.0
149
0.0
100
AcDbLayout
  1
Layout2
 70
     1
 71
     2
 10
0.0
 20
0.0
 11
0.0
 21
0.0
 12
0.0
 22
0.0
 32
0.0
 14
0.0
 24
0.0
 34
0.0
 15
0.0
 25
0.0
 35
0.0
146
0.0
 13
0.0
 23
0.0
 33
0.0
 16
1.0
 26
0.0
 36
0.0
 17
0.0
 27
1.0
 37
0.0
 76
     0
330
23
  0
LAYOUT
  5
22
102
{ACAD_REACTORS
330
1A
102
}
330
1A
100
AcDbPlotSettings
  1

  2
none_device
  4

  6

 40
0.0
 41
0.0
 42
0.0
 43
0.0
 44
0.0
 45
0.0
 46
0.0
 47
0.0
 48
0.0
 49
0.0
140
0.0
141
0.0
142
1.0
143
1.0
 70
  1712
 72
     0
 73
     0
 74
     0
  7

 75
     0
 76
     0
 77
     2
 78
   300
147
1.0
148
0.0
149
0.0
100
AcDbLayout
  1
Model
 70
     1
 71
     0
 10
0.0
 20
0.0
 11
12.0
 21
9.0
 12
0.0
 22
0.0
 32
0.0
 14
1.000000000000000E+20
 24
1.000000000000000E+20
 34
1.000000000000000E+20
 15
-1.000000000000000E+20
 25
-1.000000000000000E+20
 35
-1.000000000000000E+20
146
0.0
 13
0.0
 23
0.0
 33
0.0
 16
1.0
 26
0.0
 36
0.0
 17
0.0
 27
1.0
 37
0.0
 76
     0
330
1F
331
29
  0
MATERIAL
  5
3D
102
{ACAD_REACTORS
330
3B
102
}
330
3B
100
AcDbMaterial
  1
ByBlock
 72
     1
 94
      127
  0
MATERIAL
  5
3C
102
{ACAD_REACTORS
330
3B
102
}
330
3B
100
AcDbMaterial
  1
ByLayer
 72
     1
 94
      127
  0
MATERIAL
  5
3E
102
{ACAD_REACTORS
330
3B
102
}
330
3B
100
AcDbMaterial
  1
Global
 72
     1
 94
      127
  0
MLINESTYLE
  5
18
102
{ACAD_REACTORS
330
17
102
}
330
17
100
AcDbMlineStyle
  2
Standard
 70
     0
  3

 62
   256
 51
90.0
 52
90.0
 71
     2
 49
0.5
 62
   256
  6
BYLAYER
 49
-0.5
 62
   256
  6
BYLAYER
  0
ACDBPLACEHOLDER
  5
F
102
{ACAD_REACTORS
330
E
102
}
330
E
  0
VISUALSTYLE
  5
2F
102
{ACAD_REACTORS
330
2A
102
}
330
2A
100
AcDbVisualStyle
  2
2dWireframe
 70
     4
177
     2
291
     0
 71
     0
176
     1
 72
     2
176
     1
 73
     0
176
     1
 90
        0
176
     1
 40
-0.6
176
     1
 41
-30.0
176
     1
 62
     5
 63
     7
421
 16777215
176
     1
 74
     1
176
     1
 91
        4
176
     1
 64
     7
176
     1
 65
   257
176
     1
 75
     1
176
     1
175
     1
176
     1
 42
1.0
176
     1
 92
        0
176
     1
 66
   257
176
     1
 43
1.0
176
     1
 76
     1
176
     1
 77
     6
176
     1
 78
     2
176
     1
 67
     7
176
     1
 79
     5
176
     1
170
     0
176
     1
171
     0
176
     1
290
     0
176
     1
 93
        1
176
     1
 44
0.0
176
     1
173
     0
176
     1
  0
VISUALSTYLE
  5
31
102
{ACAD_REACTORS
330
2A
102
}
330
2A
100
AcDbVisualStyle
  2
3D Hidden
 70
     6
177
     2
291
     0
 71
     1
176
     1
 72
     2
176
     1
 73
     2
176
     1
 90
        0
176
     1
 40
-0.6
176
     1
 41
-30.0
176
     1
 62
     5
 63
     7
421
 16777215
176
     1
 74
     2
176
     1
 91
        2
176
     1
 64
     7
176
     1
 65
   257
176
     1
 75
     2
176
     1
175
     1
176
     1
 42
40.0
176
     1
 92
        0
176
     1
 66
   257
176
     1
 43
1.0
176
     1
 76
     1
176
     1
 77
     6
176
     1
 78
     2
176
     1
 67
     7
176
     1
 79
     3
176
     1
170
     0
176
     1
171
     0
176
     1
290
     0
176
     1
 93
        1
176
     1
 44
0.0
176
     1
173
     0
176
     1
  0
VISUALSTYLE
  5
30
102
{ACAD_REACTORS
330
2A
102
}
330
2A
100
AcDbVisualStyle
  2
3dWireframe
 70
     5
177
     2
291
     0
 71
     0
176
     1
 72
     2
176
     1
 73
     0
176
     1
 90
        0
176
     1
 40
-0.6
176
     1
 41
-30.0
176
     1
 62
     5
 63
     7
421
 16777215
176
     1
 74
     1
176
     1
 91
        4
176
     1
 64
     7
176
     1
 65
   257
176
     1
 75
     1
176
     1
175
     1
176
     1
 42
1.0
176
     1
 92
        0
176
     1
 66
   257
176
     1
 43
1.0
176
     1
 76
     1
176
     1
 77
     6
176
     1
 78
     2
176
     1
 67
     7
176
     1
 79
     5
176
     1
170
     0
176
     1
171
     0
176
     1
290
     0
176
     1
 93
        1
176
     1
 44
0.0
176
     1
173
     0
176
     1
  0
VISUALSTYLE
  5
32
102
{ACAD_REACTORS
330
2A
102
}
330
2A
100
AcDbVisualStyle
  2
Basic
 70
     7
177
     2
291
     1
 71
     1
176
     1
 72
     0
176
     1
 73
     1
176
     1
 90
        0
176
     1
 40
-0.6
176
     1
 41
-30.0
176
     1
 62
     5
 63
     7
421
 16777215
176
     1
 74
     0
176
     1
 91
        4
176
     1
 64
     7
176
     1
 65
   257
176
     1
 75
     1
176
     1
175
     1
176
     1
 42
1.0
176
     1
 92
        8
176
     1
 66
     7
176
     1
 43
1.0
176
     1
 76
     1
176
     1
 77
     6
176
     1
 78
     2
176
     1
 67
     7
176
     1
 79
     5
176
     1
170
     0
176
     1
171
     0
176
     1
290
     0
176
     1
 93
        1
176
     1
 44
0.0
176
     1
173
     0
176
     1
  0
VISUALSTYLE
  5
36
102
{ACAD_REACTORS
330
2A
102
}
330
2A
100
AcDbVisualStyle
  2
Brighten
 70
    12
177
     2
291
     1
 71
     2
176
     1
 72
     2
176
     1
 73
     0
176
     1
 90
        0
176
     1
 40
-0.6
176
     1
 41
-30.0
176
     1
 62
     5
 63
     7
421
 16777215
176
     1
 74
     1
176
     1
 91
        4
176
     1
 64
     7
176
     1
 65
   257
176
     1
 75
     1
176
     1
175
     1
176
     1
 42
1.0
176
     1
 92
        8
176
     1
 66
     7
176
     1
 43
1.0
176
     1
 76
     1
176
     1
 77
     6
176
     1
 78
     2
176
     1
 67
     7
176
     1
 79
     5
176
     1
170
     0
176
     1
171
     0
176
     1
290
     0
176
     1
 93
        1
176
     1
 44
50.0
176
     1
173
     0
176
     1
  0
VISUALSTYLE
  5
3A
102
{ACAD_REACTORS
330
2A
102
}
330
2A
100
AcDbVisualStyle
  2
ColorChange
 70
    16
177
     2
291
     1
 71
     2
176
     1
 72
     2
176
     1
 73
     3
176
     1
 90
        0
176
     1
 40
-0.6
176
     1
 41
-30.0
176
     1
 62
     5
 63
     8
421
  8421504
176
     1
 74
     1
176
     1
 91
        4
176
     1
 64
     7
176
     1
 65
   257
176
     1
 75
     1
176
     1
175
     1
176
     1
 42
1.0
176
     1
 92
        8
176
     1
 66
     8
424
  8421504
176
     1
 43
1.0
176
     1
 76
     1
176
     1
 77
     6
176
     1
 78
     2
176
     1
 67
     7
176
     1
 79
     5
176
     1
170
     0
176
     1
171
     0
176
     1
290
     0
176
     1
 93
        1
176
     1
 44
0.0
176
     1
173
     0
176
     1
  0
VISUALSTYLE
  5
34
102
{ACAD_REACTORS
330
2A
102
}
330
2A
100
AcDbVisualStyle
  2
Conceptual
 70
     9
177
     2
291
     0
 71
     3
176
     1
 72
     2
176
     1
 73
     0
176
     1
 90
        0
176
     1
 40
-0.6
176
     1
 41
-30.0
176
     1
 62
     5
 63
     7
421
 16777215
176
     1
 74
     2
176
     1
 91
        2
176
     1
 64
     7
176
     1
 65
   257
176
     1
 75
     1
176
     1
175
     1
176
     1
 42
40.0
176
     1
 92
        8
176
     1
 66
     7
176
     1
 43
1.0
176
     1
 76
     1
176
     1
 77
     6
176
     1
 78
     2
176
     1
 67
     7
176
     1
 79
     3
176
     1
170
     0
176
     1
171
     0
176
     1
290
     0
176
     1
 93
        1
176
     1
 44
0.0
176
     1
173
     0
176
     1
  0
VISUALSTYLE
  5
35
102
{ACAD_REACTORS
330
2A
102
}
330
2A
100
AcDbVisualStyle
  2
Dim
 70
    11
177
     2
291
     1
 71
     2
176
     1
 72
     2
176
     1
 73
     0
176
     1
 90
        0
176
     1
 40
-0.6
176
     1
 41
-30.0
176
     1
 62
     5
 63
     7
421
 16777215
176
     1
 74
     1
176
     1
 91
        4
176
     1
 64
     7
176
     1
 65
   257
176
     1
 75
     1
176
     1
175
     1
176
     1
 42
1.0
176
     1
 92
        8
176
     1
 66
     7
176
     1
 43
1.0
176
     1
 76
     1
176
     1
 77
     6
176
     1
 78
     2
176
     1
 67
     7
176
     1
 79
     5
176
     1
170
     0
176
     1
171
     0
176
     1
290
     0
176
     1
 93
        1
176
     1
 44
-50.0
176
     1
173
     0
176
     1
  0
VISUALSTYLE
  5
39
102
{ACAD_REACTORS
330
2A
102
}
330
2A
100
AcDbVisualStyle
  2
Facepattern
 70
    15
177
     2
291
     1
 71
     2
176
     1
 72
     2
176
     1
 73
     0
176
     1
 90
        0
176
     1
 40
-0.6
176
     1
 41
-30.0
176
     1
 62
     5
 63
     7
421
 16777215
176
     1
 74
     1
176
     1
 91
        4
176
     1
 64
     7
176
     1
 65
   257
176
     1
 75
     1
176
     1
175
     1
176
     1
 42
1.0
176
     1
 92
        8
176
     1
 66
     7
176
     1
 43
1.0
176
     1
 76
     1
176
     1
 77
     6
176
     1
 78
     2
176
     1
 67
     7
176
     1
 79
     5
176
     1
170
     0
176
     1
171
     0
176
     1
290
     0
176
     1
 93
        1
176
     1
 44
0.0
176
     1
173
     0
176
     1
  0
VISUALSTYLE
  5
2B
102
{ACAD_REACTORS
330
2A
102
}
330
2A
100
AcDbVisualStyle
  2
Flat
 70
     0
177
     2
291
     1
 71
     2
176
     1
 72
     1
176
     1
 73
     1
176
     1
 90
        2
176
     1
 40
-0.6
176
     1
 41
30.0
176
     1
 62
     5
 63
     7
421
 16777215
176
     1
 74
     0
176
     1
 91
        4
176
     1
 64
     7
176
     1
 65
   257
176
     1
 75
     1
176
     1
175
     1
176
     1
 42
1.0
176
     1
 92
        8
176
     1
 66
     7
176
     1
 43
1.0
176
     1
 76
     1
176
     1
 77
     6
176
     1
 78
     2
176
     1
 67
     7
176
     1
 79
     5
176
     1
170
     0
176
     1
171
     0
176
     1
290
     0
176
     1
 93
       13
176
     1
 44
0.0
176
     1
173
     0
176
     1
  0
VISUALSTYLE
  5
2C
102
{ACAD_REACTORS
330
2A
102
}
330
2A
100
AcDbVisualStyle
  2
FlatWithEdges
 70
     1
177
     2
291
     1
 71
     2
176
     1
 72
     1
176
     1
 73
     1
176
     1
 90
        2
176
     1
 40
-0.6
176
     1
 41
30.0
176
     1
 62
     5
 63
     7
421
 16777215
176
     1
 74
     1
176
     1
 91
        4
176
     1
 64
     7
176
     1
 65
   257
176
     1
 75
     1
176
     1
175
     1
176
     1
 42
1.0
176
     1
 92
        0
176
     1
 66
   257
176
     1
 43
1.0
176
     1
 76
     1
176
     1
 77
     6
176
     1
 78
     2
176
     1
 67
     7
176
     1
 79
     5
176
     1
170
     0
176
     1
171
     0
176
     1
290
     0
176
     1
 93
       13
176
     1
 44
0.0
176
     1
173
     0
176
     1
  0
VISUALSTYLE
  5
2D
102
{ACAD_REACTORS
330
2A
102
}
330
2A
100
AcDbVisualStyle
  2
Gouraud
 70
     2
177
     2
291
     1
 71
     2
176
     1
 72
     2
176
     1
 73
     1
176
     1
 90
        2
176
     1
 40
-0.6
176
     1
 41
30.0
176
     1
 62
     5
 63
     7
421
 16777215
176
     1
 74
     0
176
     1
 91
        4
176
     1
 64
     7
176
     1
 65
   257
176
     1
 75
     1
176
     1
175
     1
176
     1
 42
1.0
176
     1
 92
        0
176
     1
 66
     7
176
     1
 43
1.0
176
     1
 76
     1
176
     1
 77
     6
176
     1
 78
     2
176
     1
 67
     7
176
     1
 79
     5
176
     1
170
     0
176
     1
171
     0
176
     1
290
     0
176
     1
 93
       13
176
     1
 44
0.0
176
     1
173
     0
176
     1
  0
VISUALSTYLE
  5
2E
102
{ACAD_REACTORS
330
2A
102
}
330
2A
100
AcDbVisualStyle
  2
GouraudWithEdges
 70
     3
177
     2
291
     1
 71
     2
176
     1
 72
     2
176
     1
 73
     1
176
     1
 90
        2
176
     1
 40
-0.6
176
     1
 41
30.0
176
     1
 62
     5
 63
     7
421
 16777215
176
     1
 74
     1
176
     1
 91
        4
176
     1
 64
     7
176
     1
 65
   257
176
     1
 75
     1
176
     1
175
     1
176
     1
 42
1.0
176
     1
 92
        0
176
     1
 66
   257
176
     1
 43
1.0
176
     1
 76
     1
176
     1
 77
     6
176
     1
 78
     2
176
     1
 67
     7
176
     1
 79
     5
176
     1
170
     0
176
     1
171
     0
176
     1
290
     0
176
     1
 93
       13
176
     1
 44
0.0
176
     1
173
     0
176
     1
  0
VISUALSTYLE
  5
38
102
{ACAD_REACTORS
330
2A
102
}
330
2A
100
AcDbVisualStyle
  2
Linepattern
 70
    14
177
     2
291
     1
 71
     2
176
     1
 72
     2
176
     1
 73
     0
176
     1
 90
        0
176
     1
 40
-0.6
176
     1
 41
-30.0
176
     1
 62
     5
 63
     7
421
 16777215
176
     1
 74
     1
176
     1
 91
        4
176
     1
 64
     7
176
     1
 65
   257
176
     1
 75
     7
176
     1
175
     7
176
     1
 42
1.0
176
     1
 92
        8
176
     1
 66
     7
176
     1
 43
1.0
176
     1
 76
     1
176
     1
 77
     6
176
     1
 78
     2
176
     1
 67
     7
176
     1
 79
     5
176
     1
170
     0
176
     1
171
     0
176
     1
290
     0
176
     1
 93
        1
176
     1
 44
0.0
176
     1
173
     0
176
     1
  0
VISUALSTYLE
  5
33
102
{ACAD_REACTORS
330
2A
102
}
330
2A
100
AcDbVisualStyle
  2
Realistic
 70
     8
177
     2
291
     0
 71
     2
176
     1
 72
     2
176
     1
 73
     0
176
     1
 90
        0
176
     1
 40
-0.6
176
     1
 41
-30.0
176
     1
 62
     5
 63
     7
421
 16777215
176
     1
 74
     1
176
     1
 91
        0
176
     1
 64
     7
176
     1
 65
   257
176
     1
 75
     1
176
     1
175
     1
176
     1
 42
1.0
176
     1
 92
        8
176
     1
 66
     8
424
  7895160
176
     1
 43
1.0
176
     1
 76
     1
176
     1
 77
     6
176
     1
 78
     2
176
     1
 67
     7
176
     1
 79
     5
176
     1
170
     0
176
     1
171
     0
176
     1
290
     0
176
     1
 93
       13
176
     1
 44
0.0
176
     1
173
     0
176
     1
  0
VISUALSTYLE
  5
37
102
{ACAD_REACTORS
330
2A
102
}
330
2A
100
AcDbVisualStyle
  2
Thicken
 70
    13
177
     2
291
     1
 71
     2
176
     1
 72
     2
176
     1
 73
     0
176
     1
 90
        0
176
     1
 40
-0.6
176
     1
 41
-30.0
176
     1
 62
     5
 63
     7
421
 16777215
176
     1
 74
     1
176
     1
 91
        4
176
     1
 64
     7
176
     1
 65
   257
176
     1
 75
     1
176
     1
175
     1
176
     1
 42
1.0
176
     1
 92
       12
176
     1
 66
     7
176
     1
 43
1.0
176
     1
 76
     1
176
     1
 77
     6
176
     1
 78
     2
176
     1
 67
     7
176
     1
 79
     5
176
     1
170
     0
176
     1
171
     0
176
     1
290
     0
176
     1
 93
        1
176
     1
 44
0.0
176
     1
173
     0
176
     1
  0
ENDSEC
  0
EOF
